<?xml version="1.0" encoding="UTF-8" standalone="no"?>
<!-- Created with Inkscape (http://www.inkscape.org/) -->

<svg
   width="210mm"
   height="297mm"
   viewBox="0 0 210 297"
   version="1.1"
   id="svg1"
   xml:space="preserve"
   inkscape:export-filename="edu.png"
   inkscape:export-xdpi="96"
   inkscape:export-ydpi="96"
   inkscape:version="1.4 (e7c3feb100, 2024-10-09)"
   sodipodi:docname="edu.svg"
   xmlns:inkscape="http://www.inkscape.org/namespaces/inkscape"
   xmlns:sodipodi="http://sodipodi.sourceforge.net/DTD/sodipodi-0.dtd"
   xmlns="http://www.w3.org/2000/svg"
   xmlns:svg="http://www.w3.org/2000/svg"><sodipodi:namedview
     id="namedview1"
     pagecolor="#ffffff"
     bordercolor="#000000"
     borderopacity="0.25"
     inkscape:showpageshadow="2"
     inkscape:pageopacity="0.0"
     inkscape:pagecheckerboard="0"
     inkscape:deskcolor="#d1d1d1"
     inkscape:document-units="mm"
     inkscape:zoom="0.48996914"
     inkscape:cx="395.94331"
     inkscape:cy="669.42992"
     inkscape:window-width="1354"
     inkscape:window-height="761"
     inkscape:window-x="26"
     inkscape:window-y="23"
     inkscape:window-maximized="0"
     inkscape:current-layer="layer1" /><defs
     id="defs1" /><g
     inkscape:label="Camada 1"
     inkscape:groupmode="layer"
     id="layer1"><g
       id="g11"
       inkscape:export-filename="edu-32.png"
       inkscape:export-xdpi="96"
       inkscape:export-ydpi="96"
       transform="matrix(1.2694833,0,0,1.2694833,-47.457862,-13.284927)"><path
         style="fill:#000000;stroke-width:0.578171"
         d="m 116.13112,223.68894 c -1.25956,-0.20017 -2.6272,-0.56094 -3.63215,-0.95811 l -0.57266,-0.22633 0.0947,-0.15315 0.0947,-0.15315 -0.34427,0.10926 -0.34426,0.10927 0.11928,-0.193 0.11928,-0.193 -0.17801,0.11001 -0.178,0.11002 -1.38697,-0.80047 c -1.8557,-1.07098 -3.46532,-2.48951 -5.02195,-4.42574 -0.70788,-0.88051 -1.37444,-1.62229 -1.48123,-1.64841 -0.10679,-0.0261 -0.41386,0.0661 -0.68237,0.20497 -0.79976,0.41357 -2.875008,0.98771 -4.427513,1.2249 -3.453796,0.52769 -6.70681,0.0763 -10.024718,-1.39105 l -0.829519,-0.36685 0.08568,-0.22326 0.08567,-0.22327 0.255043,0.0813 0.255048,0.0813 -0.222156,-0.15731 c -0.122191,-0.0865 -0.272318,-0.12631 -0.333622,-0.0884 -0.06131,0.0379 -0.154707,-0.001 -0.207552,-0.0866 -0.05284,-0.0855 -0.202643,-0.15547 -0.332887,-0.15547 h -0.236796 l 0.08251,0.21503 0.08251,0.21502 -0.333848,-0.17943 c -0.717724,-0.38574 -1.16883,-0.74908 -1.089464,-0.8775 0.04573,-0.074 -0.01307,-0.0976 -0.130603,-0.0525 l -0.213715,0.082 -1.46619,-1.39003 -1.466189,-1.39003 -1.089268,-1.60025 c -0.5991,-0.88013 -1.158706,-1.60024 -1.243582,-1.60024 -0.08487,0 -0.117912,-0.0589 -0.07342,-0.13088 0.04446,-0.072 -0.07979,-0.10016 -0.276163,-0.0626 -1.008943,0.19287 -5.451254,-0.80796 -7.606253,-1.71365 l -1.318172,-0.554 -0.178059,-0.33741 c -0.09793,-0.18558 -0.144815,-0.21993 -0.104181,-0.0763 l 0.07387,0.26108 -0.413334,-0.18042 c -1.672683,-0.7301 -4.526644,-2.92599 -6.505613,-5.00555 -2.172112,-2.28252 -4.163679,-5.64546 -5.135249,-8.67135 -0.492596,-1.53415 -1.086909,-4.44471 -1.086909,-5.323 v -0.47885 l -1.185551,-0.28601 c -1.574041,-0.37971 -4.116599,-1.28099 -5.587217,-1.98053 l -1.1892,-0.56567 0.103776,-0.16791 0.10377,-0.16791 -0.168143,0.10392 c -0.09248,0.0571 -0.533357,-0.11937 -0.979725,-0.39227 -3.97155,-2.42814 -7.649853,-6.7602 -9.452802,-11.13289 -0.514039,-1.24669 -1.099999,-3.62948 -1.389577,-5.65065 l -0.184293,-1.28631 0.08449,-2.30859 0.08449,-2.30858 0.247628,-1.14295 c 0.609052,-2.81111 2.04884,-6.17039 3.783574,-8.82774 l 0.764301,-1.17079 0.153899,0.21664 0.153899,0.21663 -0.09105,-0.28057 -0.09105,-0.28057 0.950767,-1.06978 c 0.522922,-0.58838 1.581112,-1.58199 2.351533,-2.20803 l 1.400766,-1.13824 0.233694,0.0897 c 0.128531,0.0493 0.278651,0.017 0.333599,-0.072 l 0.09991,-0.16165 -0.237407,0.0911 c -0.433362,0.1663 -0.245805,-0.0847 0.365661,-0.48936 l 0.603068,-0.39909 0.185438,0.11461 0.185443,0.11461 -0.110003,-0.17798 -0.109997,-0.17799 1.625909,-0.79051 1.625915,-0.79051 -0.07953,-0.31718 c -0.04377,-0.17445 -0.160564,-1.11691 -0.259616,-2.09437 l -0.1801,-1.77719 0.176041,-2.16207 0.176042,-2.16208 0.446273,-1.72078 c 0.565393,-2.18009 1.611443,-4.77036 1.863537,-4.61456 0.07087,0.0438 0.09311,-0.0135 0.04943,-0.12735 -0.114056,-0.29722 1.504829,-2.78923 2.75998,-4.24853 0.588953,-0.68475 1.090233,-1.2977 1.113956,-1.36212 0.0237,-0.0644 -0.232066,-0.29925 -0.568423,-0.52184 -1.085233,-0.71817 -3.606399,-3.26753 -4.596562,-4.64796 -1.574412,-2.19496 -2.654666,-4.70945 -3.391331,-7.89395 l -0.324695,-1.40361 -0.07345,-2.30637 -0.07345,-2.30637 0.17333,-1.30251 c 0.459738,-3.45472 1.991694,-6.75229 4.266958,-9.18473 l 0.690798,-0.73852 0.320614,0.0893 0.320613,0.0893 -0.194832,-0.13601 -0.194832,-0.13602 0.271318,-0.22614 c 0.428066,-0.35679 1.43994,-0.97974 2.296165,-1.41363 2.092828,-1.06051 3.863464,-1.47368 6.315475,-1.47368 h 1.397861 l -0.08788,-0.42065 C 64.342683,85.23617 63.215735,76.72388 62.7234,72.31616 l -0.418642,-3.74787 -0.01029,-5.27761 -0.01029,-5.27762 0.204678,-1.45326 c 0.544822,-3.86832 1.302359,-6.70216 2.514916,-9.40792 1.350249,-3.01302 3.30716,-5.58043 7.199984,-9.44616 L 74.784034,35.1434 H 71.631838 68.47964 v -0.18232 c 0,-0.10028 0.287125,-0.6682 0.638046,-1.26204 1.485587,-2.51394 3.277662,-4.57379 6.353554,-7.30292 l 1.719248,-1.52543 0.180956,0.11183 0.180956,0.11184 -0.09306,-0.15057 c -0.100365,-0.16239 1.10959,-1.14622 1.919862,-1.56107 0.273365,-0.13996 0.806797,-0.46523 1.185406,-0.72283 2.932488,-1.9952 8.31035,-4.27228 12.084979,-5.117 3.18368,-0.71247 8.020823,-1.36831 10.091953,-1.36831 0.79502,0 1.19546,-0.16576 0.80071,-0.33145 -0.0668,-0.0281 -0.9029,-0.86988 -1.85795,-1.87075 l -1.736463,-1.81975 0.369803,-0.19376 c 0.69566,-0.36449 3.98457,-0.91628 7.78235,-1.30567 l 1.75921,-0.18037 4.51274,-0.004 4.51275,-0.004 1.91217,0.25647 c 8.59536,1.15285 15.61437,3.37797 20.68919,6.55873 l 0.72604,0.45506 -0.0995,0.16104 -0.0995,0.16105 0.17228,-0.10648 c 0.0948,-0.0586 0.35044,0.0102 0.56818,0.15291 l 0.39588,0.25939 -0.20034,0.14383 -0.20035,0.14383 0.28835,-0.094 0.28835,-0.094 1.40101,1.05307 c 1.48524,1.11637 3.16162,2.6194 4.48546,4.0216 0.8236,0.87236 0.98329,1.15242 0.5657,0.99218 l -0.2374,-0.0911 0.0999,0.16165 c 0.0549,0.0889 0.1883,0.12773 0.29633,0.0863 0.61327,-0.23533 4.16531,5.28453 5.20314,8.08567 0.61564,1.66161 0.83722,2.0714 1.19678,2.21333 0.18317,0.0723 1.10566,0.37424 2.04996,0.67098 3.30218,1.03769 6.44881,2.58529 8.60885,4.23407 1.79812,1.37252 4.12273,3.91919 3.90259,4.27539 l -0.10097,0.16337 0.17346,-0.042 c 0.0954,-0.0231 0.48402,0.4635 0.86359,1.08138 l 0.69013,1.12341 -0.0818,0.21328 -0.0819,0.21328 0.16077,-0.0364 c 0.21917,-0.0496 0.96588,1.89968 1.50962,3.94092 0.9863,3.7027 1.42859,7.51702 1.42789,12.31444 l -5.1e-4,3.44192 -0.26122,3.05949 c -0.14367,1.68272 -0.28964,3.19716 -0.32438,3.36544 -0.0347,0.16827 -0.10442,0.71897 -0.15486,1.22379 -0.25899,2.59211 -0.7401,6.45387 -1.15095,9.23831 -0.25315,1.71564 -0.42689,3.15272 -0.38609,3.19352 0.0408,0.0408 0.61046,0.0967 1.26592,0.12426 2.74242,0.11524 4.6971,0.62919 6.8518,1.80157 l 1.2238,0.66588 -0.042,0.18656 -0.042,0.18656 0.16641,-0.10284 c 0.19749,-0.12205 0.78784,0.36864 0.67098,0.55772 -0.0445,0.0719 0.0168,0.0933 0.13616,0.0475 l 0.21698,-0.0833 0.8748,0.99641 0.8748,0.9964 -0.10087,0.16322 -0.10088,0.16322 0.18347,-0.042 c 0.10091,-0.0231 0.21821,0.0536 0.26068,0.17048 l 0.0772,0.21251 -0.21106,-0.12231 -0.21107,-0.1223 0.12748,0.13925 c 0.0701,0.0766 0.20205,0.13926 0.2932,0.13926 0.0911,0 0.1976,0.0956 0.23656,0.21251 l 0.0708,0.21251 -0.19646,-0.12141 -0.19646,-0.12142 0.1107,0.17911 c 0.0609,0.0985 0.17263,0.14082 0.24833,0.094 0.17744,-0.10966 1.23424,2.00525 1.64526,3.29254 0.4646,1.4551 0.78118,2.96767 0.91996,4.39528 l 0.12242,1.2593 -0.16051,0.0535 c -0.18096,0.0603 -0.23775,1.17576 -0.0598,1.17576 0.063,0 0.0956,-0.24093 0.0724,-0.53541 -0.0232,-0.29447 0.023,-0.53541 0.10262,-0.53541 h 0.1448 l -0.10723,1.72096 c -0.18792,3.01642 -0.9702,5.90693 -2.34945,8.68129 l -0.72248,1.45326 -0.20067,-0.042 -0.20069,-0.042 0.10105,0.1635 c 0.0556,0.0899 -0.008,0.33034 -0.14191,0.53428 l -0.24295,0.37079 -0.2674,-0.086 -0.2674,-0.086 0.2187,0.15518 0.2187,0.15517 -0.41989,0.55051 -0.41989,0.5505 -0.16664,-0.10298 -0.16664,-0.10299 0.11867,0.19201 0.11868,0.19202 -0.97464,0.99046 c -0.53606,0.54476 -1.42209,1.34181 -1.96898,1.77124 -0.54688,0.42943 -1.05619,0.83373 -1.1318,0.89845 l -0.13747,0.11769 0.48503,0.55242 0.48503,0.55242 -0.10349,0.16746 -0.10349,0.16744 0.15437,-0.0954 c 0.0849,-0.0525 0.30927,0.0695 0.49859,0.27098 l 0.34421,0.3664 -0.11615,0.18794 -0.11615,0.18793 0.15928,-0.0984 c 0.0876,-0.0541 0.24184,0.001 0.34275,0.12264 l 0.18348,0.22108 -0.11329,0.18331 -0.1133,0.18331 0.15928,-0.0984 c 0.20561,-0.12707 0.55766,0.29285 0.4252,0.50718 l -0.10102,0.16347 0.18024,-0.042 c 0.22553,-0.0526 1.2437,1.72185 1.14346,1.99282 -0.0405,0.10954 -0.0143,0.16245 0.0584,0.11758 0.34763,-0.21485 1.87061,4.22948 2.32903,6.79657 l 0.20489,1.1473 0.004,2.60057 c 0.002,1.43031 -0.0477,2.99082 -0.11081,3.46782 l -0.11461,0.86725 1.72085,0.90637 1.72084,0.90637 -0.0446,0.29153 -0.0446,0.29153 0.15084,-0.22472 0.15084,-0.22472 0.65866,0.48421 c 0.36226,0.26631 0.63973,0.56186 0.61661,0.65677 -0.0231,0.0949 0.0277,0.12945 0.11296,0.0768 0.34901,-0.2157 4.07909,3.20538 4.20441,3.85612 0.0347,0.18006 0.13427,0.46047 0.22133,0.62314 0.0871,0.16267 0.12629,0.32776 0.0872,0.36687 -0.0391,0.0391 0.0321,0.0711 0.15835,0.0711 0.26068,0 0.3051,-0.19016 0.0773,-0.33094 -0.0837,-0.0517 -0.225,-0.24509 -0.31403,-0.42971 l -0.16189,-0.33567 0.39251,0.45892 c 0.21588,0.25241 0.65966,0.90638 0.98617,1.45326 1.80659,3.02595 2.92242,5.96323 3.45074,9.08369 l 0.25591,1.51147 0.002,2.23641 c 0.005,4.52633 -1.03409,8.24328 -3.2841,11.75352 l -0.69043,1.07714 -0.3572,-0.0367 c -0.19646,-0.0202 -0.23673,-0.007 -0.0895,0.0294 0.3533,0.0872 0.34692,0.11394 -0.21367,0.89454 l -0.48138,0.6703 -0.15415,-0.0953 -0.15417,-0.0953 0.0965,0.15617 c 0.1226,0.19838 -0.41326,0.69588 -0.58335,0.54158 l -0.12684,-0.11506 0.10621,0.18502 0.10621,0.18502 -0.57469,0.63612 c -1.46157,1.61777 -4.31286,3.61431 -6.95522,4.87019 -1.63308,0.77619 -2.46101,1.07789 -5.11174,1.86273 -0.25837,0.0765 -0.61735,0.1391 -0.79773,0.1391 -0.43072,0 -0.5822,0.32634 -0.71008,1.52974 -0.36901,3.47271 -1.33281,6.32875 -3.18789,9.44679 l -0.75123,1.26266 -0.17761,-0.10164 c -0.0977,-0.0559 -0.12841,-0.0471 -0.0683,0.0195 0.16007,0.1773 -0.0929,0.57697 -1.1221,1.77277 -0.5054,0.58722 -0.98508,1.02678 -1.06594,0.97681 -0.0809,-0.0499 -0.1281,3e-4 -0.10498,0.11173 0.0231,0.11142 -0.0491,0.18367 -0.16056,0.16055 -0.11142,-0.0231 -0.16438,0.0198 -0.11768,0.0953 0.0883,0.14281 -1.0128,1.23469 -2.20381,2.18546 -1.73774,1.38721 -3.69368,2.52577 -4.0067,2.33231 l -0.17088,-0.1056 0.0992,0.16058 c 0.0546,0.0883 5.8e-4,0.19834 -0.11945,0.2445 -0.12029,0.0461 -0.25213,0.002 -0.29299,-0.0987 l -0.0743,-0.18262 -0.0121,0.23498 -0.0121,0.23498 -1.46901,0.57942 c -0.80796,0.31868 -1.92658,0.68203 -2.48584,0.80743 -1.59421,0.35748 -4.80574,0.83487 -5.18074,0.77011 -0.18676,-0.0323 -0.30265,0.001 -0.25753,0.0741 0.11145,0.18035 -0.6911,1.54124 -1.54509,2.62001 l -0.70039,0.88475 -0.17034,-0.10527 -0.17033,-0.10527 0.10959,0.17732 0.10959,0.17732 -0.81258,0.79212 c -1.47022,1.43321 -3.5517,2.81935 -3.90221,2.59863 -0.0902,-0.0568 -0.19833,-0.2409 -0.24037,-0.40917 l -0.0764,-0.30595 -0.0178,0.40432 -0.0178,0.40431 -0.25136,0.0965 c -0.13825,0.0531 -0.21298,0.13483 -0.16608,0.18174 0.0469,0.0469 0.22886,0.008 0.40434,-0.0855 0.17547,-0.0939 0.31904,-0.13459 0.31904,-0.0904 0,0.16007 -2.05604,1.00812 -2.25708,0.93098 -0.11352,-0.0435 -0.1704,-0.021 -0.12641,0.0502 0.11634,0.18823 -1.28719,0.60583 -2.96574,0.88243 l -1.45812,0.24028 -1.75921,-0.0865 c -2.43224,-0.11952 -4.48874,-0.5983 -7.18979,-1.6739 l -0.22946,-0.0914 -0.65366,0.91679 c -0.35951,0.50424 -0.72012,0.87572 -0.80136,0.82551 l -0.14771,-0.0913 0.0773,0.20147 0.0773,0.20146 -0.95867,0.97729 c -1.80481,1.83986 -5.06221,4.12083 -5.59364,3.9169 -0.10978,-0.0421 -0.16231,-0.0162 -0.11674,0.0575 0.0853,0.13799 -1.33398,0.70896 -2.82051,1.1347 -1.94075,0.55583 -4.86941,0.69526 -7.11331,0.33865 z m -3.6459,-1.25399 c -0.0561,-0.0561 -0.14787,-0.0561 -0.20396,0 -0.0561,0.0561 -0.0102,0.10198 0.10198,0.10198 0.11218,0 0.15808,-0.0459 0.10198,-0.10198 z m 12.84985,-0.15298 c -0.0561,-0.0561 -0.10198,-0.0102 -0.10198,0.10198 0,0.11218 0.0459,0.15808 0.10198,0.10198 0.0561,-0.0561 0.0561,-0.14787 0,-0.20396 z m 0.45892,0 c -0.0561,-0.0561 -0.14787,-0.0561 -0.20396,0 -0.0561,0.0561 -0.0102,0.10198 0.10198,0.10198 0.11218,0 0.15808,-0.0459 0.10198,-0.10198 z m -13.71669,-0.35694 c -0.12621,-0.0816 -0.33272,-0.1445 -0.45893,-0.13988 l -0.22946,0.008 0.30595,0.13147 c 0.42054,0.18072 0.66207,0.18072 0.38243,0 z m 0.40792,-0.10199 c -0.0561,-0.0561 -0.10198,-0.0102 -0.10198,0.10199 0,0.11218 0.0459,0.15808 0.10198,0.10198 0.0561,-0.0561 0.0561,-0.14787 0,-0.20397 z m 13.00283,0 c -0.0561,-0.0561 -0.14788,-0.0561 -0.20397,0 -0.0561,0.0561 -0.0102,0.10199 0.10198,0.10199 0.11218,0 0.15808,-0.0459 0.10199,-0.10199 z m 0.45892,0 c -0.0561,-0.0561 -0.14788,-0.0561 -0.20397,0 -0.0561,0.0561 -0.0102,0.10199 0.10199,0.10199 0.11217,0 0.15807,-0.0459 0.10198,-0.10199 z m 3.87535,-1.96316 0.19044,-0.22947 h -0.17171 c -0.0944,0 -0.17171,0.0729 -0.17171,0.16201 0,0.0891 -0.0688,0.11946 -0.15297,0.0675 -0.0841,-0.052 -0.15298,-0.0216 -0.15298,0.0675 0,0.23394 0.23779,0.19899 0.45893,-0.0675 z m -22.0793,-0.48442 c -0.0561,-0.0561 -0.10198,-0.0102 -0.10198,0.10198 0,0.11218 0.0459,0.15807 0.10198,0.10198 0.0561,-0.0561 0.0561,-0.14787 0,-0.20396 z m 22.48723,0 c -0.0561,-0.0561 -0.14788,-0.0561 -0.20397,0 -0.0561,0.0561 -0.0102,0.10198 0.10199,0.10198 0.11218,0 0.15807,-0.0459 0.10198,-0.10198 z m -23.14579,-0.43343 c -0.0485,-0.1262 -0.11511,-0.22946 -0.14817,-0.22946 -0.0331,0 -0.0601,0.10326 -0.0601,0.22946 0,0.1262 0.0667,0.22946 0.14816,0.22946 0.0815,0 0.10856,-0.10326 0.0601,-0.22946 z m 0.50559,0 c 0,-0.1262 -0.0918,-0.22946 -0.20397,-0.22946 -0.21714,0 -0.27087,0.18805 -0.10198,0.35694 0.17082,0.17082 0.30595,0.11451 0.30595,-0.12748 z M 88.060322,215.1267 c 0,-0.0371 -0.07947,-0.11658 -0.176614,-0.17661 l -0.176608,-0.10915 0.109153,0.17661 c 0.108985,0.17634 0.244069,0.23675 0.244069,0.10915 z m -1.886687,-1.71724 c -0.05608,-0.0561 -0.101983,-0.0102 -0.101983,0.10198 0,0.11218 0.04591,0.15807 0.101983,0.10198 0.05608,-0.0561 0.05608,-0.14787 0,-0.20396 z m -4.895176,-5.04816 c -0.05608,-0.0561 -0.101983,-0.0102 -0.101983,0.10199 0,0.11218 0.04591,0.15807 0.101983,0.10198 0.05608,-0.0561 0.05608,-0.14787 0,-0.20397 z m 75.722301,-1.22379 c -0.0561,-0.0561 -0.10198,-0.0102 -0.10198,0.10198 0,0.11218 0.0459,0.15808 0.10198,0.10198 0.0561,-0.0561 0.0561,-0.14787 0,-0.20396 z m 9.5354,-1.88669 c 0,-0.0841 -0.0303,-0.15297 -0.0675,-0.15297 -0.0371,0 -0.11,0.0688 -0.162,0.15297 -0.052,0.0841 -0.0216,0.15298 0.0675,0.15298 0.0891,0 0.162,-0.0688 0.162,-0.15298 z m -95.24659,-0.42647 c 0.04099,-0.0663 -0.109852,-0.13444 -0.33516,-0.15146 l -0.409651,-0.0309 0.229458,0.14911 c 0.280552,0.18233 0.417769,0.19119 0.515353,0.0333 z m 96.42896,-0.12487 c -0.0508,-0.0508 -0.18277,-0.0563 -0.2932,-0.0121 l -0.20078,0.0804 0.2932,0.0121 c 0.16126,0.007 0.25161,-0.0295 0.20078,-0.0803 z M 65.216152,201.01853 c -0.05608,-0.0561 -0.101984,-0.0102 -0.101984,0.10199 0,0.11218 0.04591,0.15807 0.101984,0.10198 0.05608,-0.0561 0.05608,-0.14787 0,-0.20397 z m -1.070825,-1.22379 c -0.05608,-0.0561 -0.147873,-0.0561 -0.203961,0 -0.05608,0.0561 -0.01018,0.10199 0.101983,0.10199 0.112177,0 0.158072,-0.0459 0.101978,-0.10199 z m -0.917846,-0.76487 c -0.05608,-0.0561 -0.147873,-0.0561 -0.203961,0 -0.05608,0.0561 -0.01018,0.10198 0.101983,0.10198 0.112177,0 0.158072,-0.0459 0.101978,-0.10198 z m 111.671279,-0.45892 c -0.0561,-0.0561 -0.14788,-0.0561 -0.20396,0 -0.0561,0.0561 -0.0102,0.10198 0.10198,0.10198 0.11218,0 0.15807,-0.0459 0.10198,-0.10198 z M 59.224654,191.78908 c 0.05198,-0.0841 0.06012,-0.15297 0.01804,-0.15297 -0.04209,0 -0.119034,0.0688 -0.171029,0.15297 -0.05198,0.0841 -0.06012,0.15298 -0.01804,0.15298 0.04209,0 0.119028,-0.0688 0.171029,-0.15298 z M 179.02907,191.0752 c -0.0561,-0.0561 -0.10198,-0.0102 -0.10198,0.10199 0,0.11217 0.0459,0.15807 0.10198,0.10198 0.0561,-0.0561 0.0561,-0.14788 0,-0.20397 z M 58.485278,190.61628 c -0.05608,-0.0561 -0.101984,-0.0102 -0.101984,0.10198 0,0.11218 0.04591,0.15808 0.101984,0.10198 0.05608,-0.0561 0.05608,-0.14787 0,-0.20396 z m 0,-0.30595 c -0.05608,-0.0561 -0.147873,-0.0561 -0.203967,0 -0.05608,0.0561 -0.01018,0.10198 0.101983,0.10198 0.112183,0 0.158078,-0.0459 0.101984,-0.10198 z m -0.137061,-0.89235 c -0.04134,-0.49923 -0.245249,-0.49933 -0.216444,-1.1e-4 0.01214,0.21028 0.07292,0.38238 0.135078,0.38244 0.06216,6e-5 0.09877,-0.17199 0.08137,-0.38233 z M 47.6241,180.82592 c -0.05609,-0.0561 -0.147876,-0.0561 -0.203966,0 -0.05609,0.0561 -0.0102,0.10198 0.101983,0.10198 0.112181,0 0.158073,-0.0459 0.101983,-0.10198 z m 143.03102,-0.15297 c -0.0561,-0.0561 -0.10198,-0.0102 -0.10198,0.10198 0,0.11218 0.0459,0.15807 0.10198,0.10198 0.0561,-0.0561 0.0561,-0.14787 0,-0.20396 z m 0,-0.45893 c -0.0561,-0.0561 -0.10198,-0.0102 -0.10198,0.10199 0,0.11218 0.0459,0.15807 0.10198,0.10198 0.0561,-0.0561 0.0561,-0.14787 0,-0.20397 z m 5.00979,-4.43239 0.0964,-0.2511 -0.23296,0.19334 c -0.26545,0.2203 -0.29308,0.30886 -0.0964,0.30886 0.0751,0 0.17997,-0.113 0.23296,-0.2511 z M 42.091527,175.42082 c 0.052,-0.0841 0.06012,-0.15297 0.01806,-0.15297 -0.04207,0 -0.119031,0.0688 -0.17103,0.15297 -0.052,0.0841 -0.06012,0.15298 -0.01806,0.15298 0.04207,0 0.119031,-0.0688 0.17103,-0.15298 z m -0.516736,-0.56217 c -0.180333,-0.31012 -0.22388,-0.21086 -0.07626,0.17383 0.05246,0.13671 0.12761,0.21634 0.166997,0.17695 0.03938,-0.0394 -0.0014,-0.19723 -0.09073,-0.35078 z M 196.1622,175.0129 c -0.0561,-0.0561 -0.14788,-0.0561 -0.20397,0 -0.0561,0.0561 -0.0102,0.10198 0.10198,0.10198 0.11219,0 0.15807,-0.0459 0.10199,-0.10198 z m 0.20396,-0.35694 c 0,-0.0841 -0.0303,-0.15298 -0.0675,-0.15298 -0.0371,0 -0.11,0.0688 -0.162,0.15298 -0.052,0.0841 -0.0216,0.15297 0.0675,0.15297 0.0891,0 0.162,-0.0688 0.162,-0.15297 z m 0.36432,-0.39038 0.0911,-0.23741 -0.15122,0.0935 c -0.0832,0.0514 -0.15122,0.15823 -0.15122,0.23741 0,0.22004 0.10964,0.17155 0.21134,-0.0935 z m 2.27354,-18.37413 c -0.1057,-0.0426 -0.14669,-0.15107 -0.0911,-0.24101 l 0.10108,-0.16355 -0.17911,0.11069 c -0.2106,0.13016 -0.0841,0.40088 0.17911,0.38342 l 0.18219,-0.0121 z M 39.56745,155.68714 c 0,-0.0841 -0.06884,-0.15298 -0.152974,-0.15298 -0.08414,0 -0.152974,0.0688 -0.152974,0.15298 0,0.0841 0.06884,0.15297 0.152974,0.15297 0.08414,0 0.152974,-0.0688 0.152974,-0.15297 z m 68.30285,-0.30074 c 0.50471,-0.17648 1.18479,-0.49765 1.51129,-0.71371 l 0.59363,-0.39285 0.10845,0.17548 0.10845,0.17548 0.19935,-0.24021 0.19935,-0.2402 -0.28483,0.1093 -0.28483,0.1093 0.66799,-0.77549 c 0.3674,-0.42652 0.84932,-1.10502 1.07096,-1.50777 0.22163,-0.40275 0.57297,-0.85849 0.78075,-1.01275 l 0.3778,-0.28047 2.83002,0.11445 c 1.55651,0.063 4.20442,0.0591 5.88425,-0.009 l 3.05422,-0.12293 0.32387,0.17332 c 0.17812,0.0953 0.5753,0.61051 0.88261,1.14483 0.30732,0.53433 0.90345,1.3108 1.32474,1.72549 l 0.76598,0.75399 0.95723,0.46493 c 2.27087,1.10296 4.5228,1.05802 6.98304,-0.13937 l 0.97766,-0.47582 1.02179,-1.01237 1.02179,-1.01237 0.80366,-1.34027 c 0.44201,-0.73715 1.00726,-1.89819 1.25612,-2.58009 l 0.45248,-1.2398 0.17228,-1.57781 0.17227,-1.5778 -0.18112,-1.09677 c -0.0996,-0.60322 -0.28305,-1.29387 -0.40764,-1.53478 l -0.2265,-0.43802 -0.78409,-0.23285 c -0.43124,-0.12807 -1.54941,-0.30527 -2.48481,-0.39379 -8.23871,-0.7796 -13.56582,-2.83417 -17.54021,-6.76494 l -1.30691,-1.29257 -1.32572,1.26457 c -4.17995,3.98715 -10.35583,6.35198 -17.574902,6.72965 -1.553539,0.0813 -3.317168,0.29502 -3.438925,0.41678 -0.02486,0.0249 -0.151348,0.45264 -0.281043,0.95058 l -0.235813,0.90534 0.0023,1.38287 0.0023,1.38288 0.297313,1.44095 0.297313,1.44095 0.608224,1.26757 c 0.824628,1.71857 1.728511,3.01924 2.836543,4.08171 l 0.92651,0.88841 0.91871,0.45209 c 0.5053,0.24865 1.36618,0.55336 1.91306,0.67714 l 0.99433,0.22505 1.07082,-0.064 c 0.58896,-0.0352 1.48377,-0.20838 1.98848,-0.38485 z m 7.80189,-7.2979 c -3.56725,-0.44346 -8.52957,-2.17426 -9.20967,-3.21221 l -0.23356,-0.35646 v -0.74537 c 0,-1.3106 0.64488,-2.10769 1.83426,-2.26722 l 0.62516,-0.0839 1.48148,0.63545 c 1.69008,0.72493 3.06901,1.12568 5.04229,1.46542 l 1.37566,0.23684 2.14276,0.002 c 3.44256,0.003 6.10937,-0.5081 8.78449,-1.68531 1.59849,-0.70343 1.9546,-0.74142 2.85663,-0.30475 l 0.64598,0.31271 0.26113,0.5503 0.26115,0.55031 -0.0749,0.66452 c -0.10686,0.94803 -0.40532,1.3092 -1.59093,1.92518 -1.85073,0.96156 -4.55786,1.76668 -7.36091,2.1892 l -1.48692,0.22413 -2.44758,-0.022 c -1.34618,-0.0121 -2.65411,-0.0477 -2.90652,-0.0791 z m 11.47307,-1.57982 c 0.052,-0.0841 0.0601,-0.15298 0.0181,-0.15298 -0.0421,0 -0.11903,0.0688 -0.17103,0.15298 -0.052,0.0841 -0.0601,0.15297 -0.018,0.15297 0.0421,0 0.11903,-0.0688 0.17102,-0.15297 z m -14.68553,-3.21247 c 0.052,-0.0841 0.0216,-0.15297 -0.0675,-0.15297 -0.0891,0 -0.162,0.0688 -0.162,0.15297 0,0.0841 0.0303,0.15298 0.0675,0.15298 0.0371,0 0.11,-0.0688 0.162,-0.15298 z m -3.36544,12.08498 c 0.052,-0.0841 0.0216,-0.15298 -0.0675,-0.15298 -0.0891,0 -0.162,0.0688 -0.162,0.15298 0,0.0841 0.0303,0.15297 0.0675,0.15297 0.0371,0 0.11,-0.0688 0.162,-0.15297 z m 27.05666,-0.08 0.0894,-0.233 -0.34075,0.17723 c -0.48773,0.25369 -0.50634,0.28877 -0.15315,0.28877 0.17329,0 0.35531,-0.10485 0.40449,-0.233 z M 39.579155,155.037 c 0.0064,-0.18931 0.03341,-0.45544 0.05994,-0.5914 0.02653,-0.13597 0.004,-0.31765 -0.04995,-0.40375 l -0.09819,-0.15655 -0.19725,0.21253 -0.197249,0.21254 h 0.188244 0.188244 l -0.296944,0.23167 -0.296943,0.23168 0.229462,-0.0405 0.229461,-0.0405 -0.01832,0.34419 c -0.01007,0.18931 0.04155,0.34419 0.114731,0.34419 0.07318,0 0.138314,-0.15488 0.144751,-0.34419 z m 158.528095,0.10678 0.0911,-0.2374 -0.15122,0.0935 c -0.0832,0.0514 -0.15122,0.15824 -0.15122,0.23741 0,0.22005 0.10964,0.17155 0.21134,-0.0935 z m 0.80849,0.13542 c -0.0561,-0.0561 -0.14788,-0.0561 -0.20397,0 -0.0561,0.0561 -0.0102,0.10199 0.10198,0.10199 0.11218,0 0.15807,-0.0459 0.10199,-0.10199 z m -97.44467,-0.30595 c -0.0561,-0.0561 -0.14787,-0.0561 -0.20396,0 -0.0561,0.0561 -0.0102,0.10199 0.10198,0.10199 0.11218,0 0.15807,-0.0459 0.10198,-0.10199 z m 96.72772,-0.43712 c -0.10643,-0.12824 -0.23334,-0.19333 -0.28201,-0.14466 -0.0487,0.0487 0.0128,0.15255 0.13653,0.23082 0.32384,0.20481 0.36616,0.17974 0.14548,-0.0862 z m -72.65975,-2.28189 c 0,-0.0371 -0.0795,-0.11657 -0.17661,-0.17661 l -0.17661,-0.10915 0.10915,0.17661 c 0.10898,0.17634 0.24407,0.23675 0.24407,0.10915 z m -13.20679,-0.49345 c -0.0561,-0.0561 -0.10198,-0.0102 -0.10198,0.10198 0,0.11219 0.0459,0.15808 0.10198,0.10199 0.0561,-0.0561 0.0561,-0.14787 0,-0.20397 z m -70.393697,-2.03965 c 0.052,-0.0841 0.06012,-0.15298 0.01806,-0.15298 -0.04207,0 -0.119032,0.0688 -0.17103,0.15298 -0.052,0.0841 -0.06013,0.15297 -0.01806,0.15297 0.04207,0 0.119031,-0.0688 0.17103,-0.15297 z m 0.0255,-0.56091 c -0.05609,-0.0561 -0.101983,-0.0102 -0.101983,0.10198 0,0.11218 0.04589,0.15808 0.101983,0.10199 0.05609,-0.0561 0.05609,-0.14788 0,-0.20397 z m 99.331347,-0.34047 c 0,-0.14929 0.0485,-0.31992 0.10777,-0.3792 0.0593,-0.0593 0.12732,-0.29446 0.15122,-0.52266 l 0.0435,-0.41489 -0.30408,0.76487 c -0.34147,0.85894 -0.37387,1.05537 -0.15135,0.91784 0.0841,-0.052 0.15297,-0.21668 0.15297,-0.36596 z m 1.14731,-0.47539 0.0945,-0.15298 h -0.23849 c -0.13117,0 -0.23849,0.0688 -0.23849,0.15298 0,0.0841 0.0648,0.15297 0.14395,0.15297 0.0792,0 0.18648,-0.0688 0.23848,-0.15297 z m -46.170243,-0.64059 -0.08035,-0.20077 -0.01208,0.2932 c -0.0066,0.16126 0.02954,0.25161 0.08035,0.20078 0.05082,-0.0508 0.05626,-0.18278 0.01208,-0.29321 z m 46.246723,0.26718 c 0,-0.0371 -0.0688,-0.11001 -0.15297,-0.16201 -0.0841,-0.052 -0.15298,-0.0216 -0.15298,0.0675 0,0.0891 0.0688,0.16201 0.15298,0.16201 0.0841,0 0.15297,-0.0304 0.15297,-0.0675 z m -99.178367,-0.34048 c -0.05609,-0.0561 -0.147876,-0.0561 -0.203966,0 -0.05609,0.0561 -0.0102,0.10199 0.101983,0.10199 0.112181,0 0.158073,-0.0459 0.101983,-0.10199 z m 0.279369,-0.35518 0.09346,-0.15122 -0.237407,0.0911 c -0.265015,0.10169 -0.313504,0.21134 -0.09346,0.21134 0.07917,0 0.186004,-0.068 0.237407,-0.15122 z M 96.1163,146.92935 c -0.04244,-0.10517 -0.07716,-0.0191 -0.07716,0.19122 0,0.21034 0.03469,0.29639 0.07716,0.19122 0.04244,-0.10517 0.04244,-0.27727 0,-0.38244 z m 46.19892,0.24221 c -0.0561,-0.0561 -0.14787,-0.0561 -0.20396,0 -0.0561,0.0561 -0.0102,0.10198 0.10198,0.10198 0.11218,0 0.15807,-0.0459 0.10198,-0.10198 z m 49.5637,-1.98866 c -0.0561,-0.0561 -0.10199,-0.0102 -0.10199,0.10198 0,0.11218 0.0459,0.15807 0.10199,0.10198 0.0561,-0.0561 0.0561,-0.14787 0,-0.20396 z M 46.094358,144.87694 c -0.05609,-0.0561 -0.147875,-0.0561 -0.203966,0 -0.05609,0.0561 -0.0102,0.10199 0.101983,0.10199 0.112181,0 0.158074,-0.0459 0.101983,-0.10199 z m 145.835552,0.0345 c 0,-0.0371 -0.0688,-0.11 -0.15298,-0.162 -0.0841,-0.052 -0.15298,-0.0216 -0.15298,0.0675 0,0.0891 0.0688,0.162 0.15298,0.162 0.0841,0 0.15298,-0.0304 0.15298,-0.0675 z m -145.254404,-0.5215 c -0.08619,-0.0907 -0.377184,0.13923 -0.377184,0.29808 v 0.14998 l 0.214033,-0.19725 c 0.117718,-0.10849 0.191136,-0.22135 0.163151,-0.25081 z m 48.523618,-2.87845 c -0.05608,-0.0561 -0.101983,-0.0102 -0.101983,0.10198 0,0.11219 0.04591,0.15808 0.101983,0.10199 0.05608,-0.0561 0.05608,-0.14787 0,-0.20397 z m 12.671376,-2.80453 c 0.052,-0.0841 0.0601,-0.15297 0.018,-0.15297 -0.0421,0 -0.11903,0.0688 -0.17103,0.15297 -0.052,0.0841 -0.0601,0.15298 -0.018,0.15298 0.0421,0 0.11903,-0.0688 0.17103,-0.15298 z m 22.35975,-0.10198 c -0.0561,-0.0561 -0.10198,-0.0102 -0.10198,0.10198 0,0.11219 0.0459,0.15808 0.10198,0.10199 0.0561,-0.0561 0.0561,-0.14788 0,-0.20397 z m 0.45892,0.15297 c -0.0561,-0.0561 -0.14788,-0.0561 -0.20396,0 -0.0561,0.0561 -0.0102,0.10199 0.10198,0.10199 0.11218,0 0.15807,-0.0459 0.10198,-0.10199 z M 129.9243,138.605 c -0.0561,-0.0561 -0.14787,-0.0561 -0.20397,0 -0.0561,0.0561 -0.0102,0.10198 0.10199,0.10198 0.11218,0 0.15807,-0.0459 0.10198,-0.10198 z m -0.63739,-0.20324 c -0.39846,-0.17217 -0.53541,-0.18089 -0.53541,-0.0341 0,0.0658 0.1893,0.13011 0.42067,0.14295 l 0.42069,0.0234 z m -0.89235,-0.25568 c -0.0561,-0.0561 -0.14788,-0.0561 -0.20397,0 -0.0561,0.0561 -0.0102,0.10198 0.10199,0.10198 0.11218,0 0.15807,-0.0459 0.10198,-0.10198 z m -18.20395,-0.45893 c -0.0561,-0.0561 -0.10198,-0.0102 -0.10198,0.10199 0,0.11218 0.0459,0.15807 0.10198,0.10198 0.0561,-0.0561 0.0561,-0.14788 0,-0.20397 z m 6.78186,-3.78983 c 0,-0.0371 -0.0688,-0.11 -0.15297,-0.162 -0.0841,-0.052 -0.15297,-0.0216 -0.15297,0.0675 0,0.0891 0.0688,0.16199 0.15297,0.16199 0.0841,0 0.15297,-0.0303 0.15297,-0.0674 z m -36.024117,-3.69299 c 3.744905,-3.30487 6.957921,-5.4982 10.85984,-7.41334 l 2.447588,-1.20133 2.757239,-0.91482 c 1.516484,-0.50315 3.78464,-1.12848 5.04035,-1.38961 1.25571,-0.26114 2.30296,-0.49465 2.32722,-0.51891 0.0243,-0.0243 -0.0937,-0.43609 -0.26204,-0.91518 -0.16839,-0.47909 -0.34971,-1.38634 -0.40295,-2.0161 -0.0532,-0.62977 -0.11254,-1.14503 -0.1318,-1.14503 -0.0192,0 -0.41238,0.1669 -0.87362,0.37087 -1.28402,0.56786 -3.243826,1.12344 -4.935987,1.3993 l -1.529747,0.24938 -2.371102,-0.0834 -2.371102,-0.0834 -1.376769,-0.3054 c -4.728899,-1.04898 -9.039001,-3.81152 -11.959243,-7.66524 l -0.986059,-1.30126 -0.900946,-1.8357 c -0.98943,-2.01599 -1.563484,-3.81847 -1.924401,-6.04249 l -0.235836,-1.45325 0.03567,-1.78301 0.03567,-1.78302 -0.248429,-0.24842 c -0.315912,-0.31602 -1.390928,-0.69839 -1.963167,-0.69839 h -0.439693 v 0.19361 c 0,0.10649 -0.167537,2.29211 -0.372302,4.85693 -0.20477,2.56483 -0.455517,6.0401 -0.557217,7.72281 l -0.184911,3.05949 0.09267,2.14164 c 0.350238,8.09392 2.107554,13.46474 5.974077,18.25836 0.790649,0.98022 2.130739,2.16372 2.450022,2.16372 0.09491,0 0.998033,-0.72847 2.006924,-1.61881 z m 78.651987,1.03088 c 1.10314,-0.87601 1.93656,-1.84321 3.04187,-3.53016 2.22749,-3.39967 3.54153,-7.11663 4.22257,-11.94422 l 0.20502,-1.45326 -0.005,-4.20679 c -0.002,-2.31374 -0.0544,-4.9296 -0.11524,-5.81303 -0.24584,-3.56829 -0.74058,-9.89696 -0.8094,-10.35376 l -0.0734,-0.48691 -0.26269,-0.0556 c -0.36653,-0.0776 -1.42215,0.19766 -1.32998,0.34679 0.0417,0.0674 -0.16581,0.20231 -0.46106,0.29975 l -0.53682,0.17717 v 1.90132 c 0,4.80658 -1.47836,9.36262 -4.07638,12.56263 l -0.52245,0.64349 -0.22466,-0.0862 -0.22466,-0.0862 v 0.17837 c 0,0.0981 0.0688,0.13583 0.15298,0.0838 0.0841,-0.052 0.15297,-0.0317 0.15297,0.045 0,0.0767 -0.63676,0.75197 -1.41502,1.50053 -2.82765,2.71974 -6.15904,4.48267 -10.13454,5.36308 l -1.07082,0.23715 -2.29462,0.0788 -2.29461,0.0787 -1.72789,-0.25424 -1.72789,-0.25425 -1.52244,-0.51771 c -0.83734,-0.28475 -1.72913,-0.62083 -1.98174,-0.74686 -0.25261,-0.12601 -0.46155,-0.18277 -0.46431,-0.12612 -0.034,0.69927 -0.32722,2.34227 -0.53721,3.00988 -0.1467,0.46636 -0.23663,0.87801 -0.19987,0.91478 0.0368,0.0368 0.88996,0.24087 1.89597,0.45355 7.97572,1.68616 14.35665,4.87054 20.54861,10.25472 1.99747,1.73689 2.78468,2.37375 2.93417,2.37375 0.0647,0 0.45087,-0.26457 0.85808,-0.58793 z m -82.554172,-0.63587 c 0,-0.0841 -0.0729,-0.15297 -0.162003,-0.15297 -0.0891,0 -0.119456,0.0688 -0.06746,0.15297 0.05198,0.0841 0.124902,0.15297 0.162003,0.15297 0.03712,0 0.06746,-0.0688 0.06746,-0.15297 z m 4.665717,-0.6119 c 0.05198,-0.0841 0.02162,-0.15297 -0.06746,-0.15297 -0.0891,0 -0.162003,0.0688 -0.162003,0.15297 0,0.0841 0.03035,0.15298 0.06746,0.15298 0.03712,0 0.110002,-0.0688 0.162003,-0.15298 z m 80.000335,-0.28302 c -0.0862,-0.0907 -0.37718,0.13923 -0.37718,0.29808 v 0.14998 l 0.21403,-0.19725 c 0.11772,-0.10848 0.19113,-0.22135 0.16315,-0.25081 z m -85.277953,0.21556 c 0,-0.0371 -0.06884,-0.11 -0.152973,-0.162 -0.08414,-0.052 -0.152972,-0.0216 -0.152972,0.0675 0,0.0891 0.06884,0.162 0.152972,0.162 0.08413,0 0.152973,-0.0303 0.152973,-0.0675 z m 6.730874,-1.15633 c 0,-0.0841 -0.03035,-0.15297 -0.06746,-0.15297 -0.03712,0 -0.110003,0.0688 -0.161998,0.15297 -0.05198,0.0841 -0.02162,0.15297 0.06746,0.15297 0.0891,0 0.162004,-0.0688 0.162004,-0.15297 z m 0.407934,-0.10199 c -0.05608,-0.0561 -0.101984,-0.0102 -0.101984,0.10199 0,0.11218 0.04591,0.15807 0.101984,0.10198 0.05608,-0.0561 0.05608,-0.14787 0,-0.20397 z m -29.814066,-1.09313 c 0.09178,-0.27533 -0.224411,-0.21747 -0.331119,0.0606 l -0.09296,0.24224 0.181766,-0.0606 c 0.09996,-0.0333 0.209008,-0.14233 0.242311,-0.24225 z m 130.445691,0.1243 c -0.052,-0.0841 -0.17653,-0.15192 -0.27673,-0.15063 l -0.18219,0.002 0.22946,0.14829 c 0.29388,0.18992 0.34684,0.18992 0.22946,0 z m -0.0765,-0.37341 c 0,-0.0371 -0.0688,-0.11 -0.15297,-0.162 -0.0841,-0.052 -0.15298,-0.0216 -0.15298,0.0675 0,0.0891 0.0688,0.162 0.15298,0.162 0.0841,0 0.15297,-0.0304 0.15297,-0.0675 z m -130.275774,-0.32292 0.0911,-0.23741 -0.151226,0.0935 c -0.08317,0.0514 -0.151221,0.15824 -0.151221,0.23741 0,0.22005 0.109644,0.17155 0.211345,-0.0935 z m 0.477037,-0.22152 c 0.05198,-0.0841 0.06013,-0.15297 0.01804,-0.15297 -0.04209,0 -0.119028,0.0688 -0.171029,0.15297 -0.05198,0.0841 -0.06012,0.15298 -0.01804,0.15298 0.04209,0 0.119034,-0.0688 0.171029,-0.15298 z m 1.249294,-2.85552 c -0.05608,-0.0561 -0.147879,-0.0561 -0.203967,0 -0.05608,0.0561 -0.01018,0.10198 0.101983,0.10198 0.112183,0 0.158072,-0.0459 0.101984,-0.10198 z m 37.172764,-0.91784 c -0.05608,-0.0561 -0.147873,-0.0561 -0.203962,0 -0.05608,0.0561 -0.01017,0.10198 0.101984,0.10198 0.112177,0 0.158072,-0.0459 0.101978,-0.10198 z m 52.776159,-0.15298 c -0.0561,-0.0561 -0.10199,-0.0102 -0.10199,0.10199 0,0.11217 0.0459,0.15807 0.10199,0.10197 0.0561,-0.0561 0.0561,-0.14787 0,-0.20396 z m 35.33707,-0.91784 c -0.0561,-0.0561 -0.14788,-0.0561 -0.20396,0 -0.0561,0.0561 -0.0102,0.10198 0.10198,0.10198 0.11218,0 0.15807,-0.0459 0.10198,-0.10198 z m -59.2268,-0.50769 c 0.67295,-0.17331 1.90538,-0.62086 2.73872,-0.99457 0.83334,-0.37371 1.5841,-0.63687 1.66835,-0.5848 l 0.15317,0.0947 -0.0995,-0.16105 -0.0995,-0.16104 0.75257,-0.48292 c 0.85576,-0.54914 1.84078,-1.56386 2.25452,-2.3225 l 0.28068,-0.51466 v -2.06515 -2.06516 l -0.28552,-0.52401 c -0.15704,-0.28821 -0.71466,-1.01608 -1.23916,-1.61748 -2.43544,-2.79252 -4.01111,-5.90879 -4.83431,-9.56104 l -0.18964,-0.84136 -0.0498,-2.67706 -0.0498,-2.67705 -0.48998,-0.2635 c -0.26949,-0.14493 -1.00346,-0.37775 -1.63105,-0.51737 l -1.14107,-0.25387 -1.24025,0.0833 c -1.30179,0.0875 -2.41364,0.40673 -2.87712,0.82617 l -0.27531,0.24915 v 2.09789 2.09789 l -0.22813,1.30823 c -0.65965,3.7827 -2.39099,7.28627 -5.1941,10.51087 -0.40226,0.46276 -0.83785,1.0823 -0.96799,1.37677 l -0.23662,0.53541 -0.0138,1.68272 -0.0138,1.68272 0.27849,0.79857 0.27849,0.79855 0.69484,0.77285 c 1.21829,1.35503 4.40629,2.91299 7.23826,3.53731 l 1.30028,0.28666 1.14731,-0.07 c 0.63102,-0.0385 1.69791,-0.21183 2.37087,-0.38513 z M 71.794047,121.3189 c -0.05608,-0.0561 -0.147873,-0.0561 -0.203967,0 -0.05608,0.0561 -0.01018,0.10198 0.101984,0.10198 0.112182,0 0.158071,-0.0459 0.101983,-0.10198 z m -0.458923,-0.91785 c -0.05608,-0.0561 -0.101983,-0.0102 -0.101983,0.10198 0,0.11219 0.04591,0.15808 0.101983,0.10199 0.05608,-0.0561 0.05608,-0.14788 0,-0.20397 z m 0,-0.45892 c -0.05608,-0.0561 -0.101983,-0.0102 -0.101983,0.10198 0,0.11218 0.04591,0.15808 0.101983,0.10198 0.05608,-0.0561 0.05608,-0.14787 0,-0.20396 z m -14.864008,-1.42776 c 0.05198,-0.0841 0.02162,-0.15297 -0.06746,-0.15297 -0.0891,0 -0.161998,0.0688 -0.161998,0.15297 0,0.0841 0.03035,0.15297 0.06746,0.15297 0.03712,0 0.110003,-0.0688 0.162004,-0.15297 z m 125.158514,-0.25496 c -0.0561,-0.0561 -0.10198,-0.0102 -0.10198,0.10199 0,0.11217 0.0459,0.15807 0.10198,0.10197 0.0561,-0.0561 0.0561,-0.14787 0,-0.20396 z M 92.037652,116.1268 c 0,-0.12661 -0.297036,-0.1982 -0.365133,-0.088 -0.04417,0.0715 0.01989,0.12997 0.142404,0.12997 0.122503,0 0.222729,-0.0189 0.222729,-0.042 z m -0.968835,-0.162 c -0.05608,-0.0561 -0.147873,-0.0561 -0.203968,0 -0.05608,0.0561 -0.01018,0.10198 0.101984,0.10198 0.112183,0 0.158072,-0.0459 0.101984,-0.10198 z m 93.339323,-0.58693 c -0.047,-0.047 -0.20639,0.10594 -0.35414,0.33994 l -0.26862,0.42546 0.35414,-0.33995 c 0.19477,-0.18696 0.31565,-0.37842 0.26862,-0.42545 z m -7.36774,0.28098 c -0.0561,-0.0561 -0.10198,-0.0102 -0.10198,0.10198 0,0.11218 0.0459,0.15807 0.10198,0.10198 0.0561,-0.0561 0.0561,-0.14788 0,-0.20396 z m -116.057916,-1.2399 c 1.649267,-3.92187 2.84922,-7.8943 3.753329,-12.42538 0.689446,-3.45522 0.834688,-4.76244 0.836116,-7.52505 l 0.0012,-2.247 -0.726628,-0.12086 c -0.399643,-0.0665 -1.244489,-0.11657 -1.877436,-0.11131 l -1.150809,0.01 -1.067314,0.32649 c -4.084788,1.24954 -6.624664,5.24935 -6.645547,10.46544 l -0.0052,1.3331 0.292254,1.49692 c 0.160743,0.82331 0.547152,2.18531 0.858688,3.02667 0.311535,0.84136 0.573389,1.64516 0.581882,1.78622 0.0085,0.14106 0.08124,0.21582 0.161645,0.16612 l 0.146191,-0.0904 -0.100729,0.2625 -0.100735,0.2625 0.177221,-0.10953 0.177215,-0.10952 -0.100729,0.2625 -0.100729,0.2625 0.137686,-0.0851 c 0.07573,-0.0468 0.349816,0.25965 0.609074,0.681 0.259257,0.42134 0.987215,1.30601 1.617681,1.96591 0.630472,0.6599 1.095616,1.25052 1.033654,1.31248 -0.06196,0.062 -0.0094,0.0897 0.116808,0.0617 0.126203,-0.028 0.21712,0.0205 0.202041,0.10776 -0.01509,0.0873 0.130893,0.17185 0.324389,0.18786 l 0.351811,0.0291 z m 117.113976,1.01856 0.0816,-0.1321 -0.27566,0.10064 c -0.15161,0.0553 0.24584,-0.41009 0.88322,-1.03432 2.59867,-2.5451 4.37772,-6.31174 4.72287,-9.99934 l 0.12963,-1.38492 -0.14504,-1.45326 c -0.42004,-4.20872 -2.2006,-7.15089 -5.23229,-8.64576 l -1.09296,-0.53892 -1.1874,-0.2411 -1.1874,-0.24109 -1.23385,0.16605 c -0.67861,0.0913 -1.30441,0.20966 -1.39067,0.26297 l -0.15682,0.0969 0.10453,2.62004 c 0.11758,2.94703 0.22395,3.87738 0.78056,6.82684 0.70854,3.75446 1.50173,6.64653 2.72615,9.93981 0.3903,1.04976 0.67463,1.99986 0.63185,2.11134 -0.0428,0.11148 -0.0194,0.16658 0.0521,0.12243 0.0714,-0.0441 0.2558,0.21042 0.40973,0.56571 0.15393,0.35528 0.33692,0.72341 0.40665,0.81806 0.14901,0.20227 0.85494,0.23128 0.97316,0.04 z m -1.51498,-0.39056 c -0.0561,-0.0561 -0.10198,-0.0102 -0.10198,0.10198 0,0.11218 0.0459,0.15808 0.10198,0.10199 0.0561,-0.0561 0.0561,-0.14788 0,-0.20397 z m -25.07823,-0.44937 c -0.0508,-0.0508 -0.18278,-0.0563 -0.2932,-0.0121 l -0.20079,0.0803 0.29321,0.0121 c 0.16126,0.007 0.25161,-0.0296 0.20078,-0.0803 z m 24.92525,-0.01 c -0.0561,-0.0561 -0.14787,-0.0561 -0.20396,0 -0.0561,0.0561 -0.0102,0.10199 0.10198,0.10199 0.11218,0 0.15807,-0.0459 0.10198,-0.10199 z M 52.519278,114.1291 c -0.05608,-0.0561 -0.147873,-0.0561 -0.203967,0 -0.05608,0.0561 -0.01018,0.10199 0.101983,0.10199 0.112183,0 0.158078,-0.0459 0.101984,-0.10199 z m 45.713838,-2.48963 c 2.700194,-0.65817 5.391614,-2.14552 7.457494,-4.12123 l 0.72664,-0.69491 v 0.20918 0.20917 l 0.30688,-0.27773 c 0.16879,-0.15275 0.2683,-0.31631 0.22114,-0.36347 -0.0472,-0.0472 -0.14709,0.0135 -0.22208,0.13486 -0.075,0.12134 -0.17787,0.17907 -0.22864,0.1283 -0.0508,-0.0508 0.25684,-0.55357 0.68357,-1.11735 0.9759,-1.28935 2.19031,-3.76292 2.63119,-5.35938 l 0.33796,-1.2238 10e-4,-2.75354 0.001,-2.75353 -0.41425,-1.34439 c -0.78492,-2.54748 -1.96065,-4.53524 -3.8531,-6.5144 -1.38606,-1.44958 -2.5595,-2.33346 -4.16452,-3.1369 -4.487706,-2.24648 -9.487559,-2.2866 -14.040406,-0.11266 l -1.529742,0.73043 -1.305486,1.04511 c -5.11939,4.09834 -7.182379,10.77175 -5.188667,16.78442 1.798123,5.42279 6.190088,9.4172 11.63378,10.58069 1.642623,0.35109 2.013503,0.38024 3.962343,0.31148 l 1.759206,-0.0621 z m -3.506375,-8.73478 C 92.988378,102.28861 91.583915,101.04007 90.745,99.365 l -0.511796,-1.0219 -0.181453,-1.07577 -0.181448,-1.07576 0.157829,-1.01378 c 0.08681,-0.55758 0.356922,-1.43923 0.600251,-1.95921 l 0.442422,-0.94543 0.859434,-0.92829 0.859434,-0.9283 0.903299,-0.48145 c 0.496816,-0.2648 1.342981,-0.59417 1.880362,-0.73194 l 0.977062,-0.25048 0.994333,0.0876 c 1.111568,0.0979 2.790761,0.62059 3.068391,0.95512 l 0.18154,0.21874 h -0.55906 c -0.795726,0 -1.517433,0.34479 -1.973645,0.94292 -0.378765,0.49658 -0.748881,1.66245 -0.641486,2.02066 0.02845,0.0948 0.09284,0.36043 0.143155,0.59026 0.111847,0.51093 0.897674,1.431 1.478938,1.73158 0.58538,0.30272 1.463588,0.27283 2.231818,-0.076 l 0.6407,-0.29088 0.47272,-0.65256 c 0.25999,-0.35891 0.51264,-0.81163 0.56143,-1.00604 0.0488,-0.19441 0.14067,-0.35347 0.20417,-0.35347 0.16108,0 0.58779,1.44752 0.70641,2.39629 l 0.0988,0.79006 -0.17606,1.04563 c -0.0968,0.5751 -0.38294,1.47254 -0.63582,1.99432 l -0.45976,0.94869 -0.83711,0.84382 -0.83711,0.84383 -1.1823,0.56866 -1.182291,0.56866 -1.607795,0.0526 -1.607789,0.0525 z m 5.367559,-0.70759 c -0.0561,-0.0561 -0.147873,-0.0561 -0.203961,0 -0.05608,0.0561 -0.01018,0.10199 0.101983,0.10199 0.112178,0 0.158068,-0.0459 0.101978,-0.10199 z m 46.24925,9.50443 c 4.23399,-0.89306 8.00487,-3.61863 10.26184,-7.41719 0.7184,-1.20909 1.71505,-3.95436 1.98003,-5.45394 l 0.19395,-1.09758 -0.0877,-1.96191 -0.0877,-1.9619 -0.32807,-1.21923 c -1.08234,-4.02239 -4.03375,-7.74677 -7.71071,-9.7301 -4.32297,-2.33178 -9.36388,-2.54338 -13.92694,-0.5846 -4.28814,1.84077 -7.83638,6.07763 -8.90379,10.63179 l -0.28316,1.20809 0.008,2.3711 0.008,2.3711 0.40645,1.48026 c 0.50765,1.84884 1.06484,3.08671 2.07815,4.61685 0.43521,0.65719 0.74574,1.26859 0.69008,1.35865 l -0.1012,0.16375 0.15031,-0.0929 c 0.0827,-0.0511 0.55796,0.32285 1.05621,0.83099 3.77973,3.85475 9.40135,5.58269 14.59711,4.48677 z m -7.72521,-8.68918 c -2.19619,-0.7283 -3.85035,-2.32306 -4.66924,-4.50159 l -0.32981,-0.87739 -0.004,-1.37677 -0.004,-1.37677 0.32888,-0.96813 c 0.4213,-1.24021 0.93129,-2.04054 1.90403,-2.98801 l 0.77911,-0.75888 0.92624,-0.43344 c 0.50944,-0.2384 1.33673,-0.50987 1.83843,-0.60327 l 0.91219,-0.16984 0.96387,0.0976 c 0.99097,0.10032 2.55755,0.59535 2.90145,0.91685 l 0.19393,0.1813 -0.63893,0.0377 c -0.73804,0.0435 -1.11215,0.21044 -1.69936,0.75813 l -0.42067,0.39236 v -0.19062 -0.19062 l -0.16931,0.10463 -0.16931,0.10464 0.16286,0.10065 0.16285,0.10065 -0.23488,0.68175 -0.23488,0.68175 0.0947,0.63163 0.0947,0.63162 0.54441,0.63602 c 0.68033,0.79482 1.23502,1.08692 2.06403,1.08692 h 0.64768 l 0.6604,-0.3197 0.66039,-0.31969 0.56298,-1.0067 0.56298,-1.00671 0.28326,0.82923 c 0.62525,1.8304 0.50087,3.53876 -0.39513,5.42687 l -0.51214,1.07921 -0.81123,0.79855 -0.81124,0.79854 -1.13048,0.55871 -1.13047,0.55872 -1.63666,0.0485 -1.63665,0.0485 z m -1.45325,-1.08667 c 0,-0.0371 -0.0795,-0.11658 -0.17661,-0.17661 l -0.17662,-0.10915 0.10916,0.17661 c 0.10898,0.17634 0.24407,0.23675 0.24407,0.10915 z m 0.40793,-0.0345 c -0.0561,-0.0561 -0.14788,-0.0561 -0.20397,0 -0.0561,0.0561 -0.0102,0.10198 0.10199,0.10198 0.11218,0 0.15807,-0.0459 0.10198,-0.10198 z m 0,-0.6119 c -0.0561,-0.0561 -0.14788,-0.0561 -0.20397,0 -0.0561,0.0561 -0.0102,0.10199 0.10199,0.10199 0.11218,0 0.15807,-0.0459 0.10198,-0.10199 z m -56.151585,10.00708 0.110038,-0.19122 -0.12518,0.1134 c -0.06885,0.0624 -0.234772,0.0279 -0.368717,-0.0765 l -0.243537,-0.18989 0.209951,0.26771 c 0.250227,0.31907 0.275209,0.32364 0.417445,0.0765 z m 93.088375,-1.83825 -0.19008,-0.18866 0.10445,0.2743 c 0.0575,0.15087 0.14298,0.23576 0.19008,0.18867 0.0471,-0.0471 9e-5,-0.17054 -0.10445,-0.27431 z m -89.279513,0.0408 c 0.05198,-0.0841 0.06012,-0.15298 0.01804,-0.15298 -0.04209,0 -0.119033,0.0688 -0.171034,0.15298 -0.05198,0.0841 -0.06012,0.15297 -0.01804,0.15297 0.04209,0 0.119034,-0.0688 0.171034,-0.15297 z m 19.886663,-0.30595 c 0.052,-0.0841 0.0601,-0.15298 0.018,-0.15298 -0.0421,0 -0.11903,0.0688 -0.17103,0.15298 -0.052,0.0841 -0.0601,0.15297 -0.018,0.15297 0.0421,0 0.11903,-0.0688 0.17103,-0.15297 z m 28.37674,-0.0675 c 0,-0.0371 -0.0688,-0.11 -0.15297,-0.162 -0.0841,-0.052 -0.15297,-0.0216 -0.15297,0.0675 0,0.0891 0.0688,0.162 0.15297,0.162 0.0841,0 0.15297,-0.0303 0.15297,-0.0675 z m -48.849807,-0.34047 c -0.05608,-0.0561 -0.147873,-0.0561 -0.203967,0 -0.05608,0.0561 -0.01018,0.10198 0.101984,0.10198 0.112182,0 0.158072,-0.0459 0.101983,-0.10198 z M 132.98379,108.622 c -0.0561,-0.0561 -0.10198,-0.0102 -0.10198,0.10199 0,0.11217 0.0459,0.15807 0.10198,0.10198 0.0561,-0.0561 0.0561,-0.14788 0,-0.20397 z m 41.30559,-0.0797 -0.0803,-0.20078 -0.0121,0.2932 c -0.007,0.16126 0.0295,0.25161 0.0804,0.20078 0.0508,-0.0508 0.0562,-0.18277 0.0121,-0.2932 z m -68.84097,-0.0733 c -0.0561,-0.0561 -0.10199,-0.0102 -0.10199,0.10198 0,0.11219 0.0459,0.15808 0.10199,0.10199 0.0561,-0.0561 0.0561,-0.14788 0,-0.20397 z m -21.059473,0.0419 c 0,-0.0331 -0.106834,-0.10112 -0.237408,-0.15122 l -0.237409,-0.0911 0.09346,0.15122 c 0.08984,0.14535 0.381355,0.21499 0.381355,0.0911 z m 69.603333,-0.24583 c 0,-0.0841 -0.0303,-0.15298 -0.0675,-0.15298 -0.0371,0 -0.11001,0.0688 -0.16201,0.15298 -0.052,0.0841 -0.0216,0.15297 0.0675,0.15297 0.0891,0 0.16201,-0.0688 0.16201,-0.15297 z m -48.23791,-0.40793 c -0.0561,-0.0561 -0.10199,-0.0102 -0.10199,0.10198 0,0.11218 0.0459,0.15807 0.10199,0.10198 0.0561,-0.0561 0.0561,-0.14787 0,-0.20396 z m 48.62034,0.10198 c 0.052,-0.0841 0.0216,-0.15297 -0.0675,-0.15297 -0.0891,0 -0.162,0.0688 -0.162,0.15297 0,0.0841 0.0303,0.15297 0.0675,0.15297 0.0371,0 0.11,-0.0688 0.162,-0.15297 z m 5.22663,0.051 c -0.0561,-0.0561 -0.14788,-0.0561 -0.20397,0 -0.0561,0.0561 -0.0102,0.10198 0.10198,0.10198 0.11218,0 0.15808,-0.0459 0.10199,-0.10198 z m -53.38805,-0.30595 c -0.0561,-0.0561 -0.10198,-0.0102 -0.10198,0.10198 0,0.11218 0.0459,0.15808 0.10198,0.10199 0.0561,-0.0561 0.0561,-0.14788 0,-0.20397 z m 48.64948,-0.28774 c 0.13021,-0.13021 0.20519,-0.26831 0.16661,-0.30688 -0.0386,-0.0386 -0.19512,0.0679 -0.34787,0.23674 -0.32438,0.35843 -0.16766,0.41907 0.18126,0.0701 z M 131.1481,106.9393 c -0.0561,-0.0561 -0.14788,-0.0561 -0.20397,0 -0.0561,0.0561 -0.0102,0.10198 0.10198,0.10198 0.11219,0 0.15807,-0.0459 0.10199,-0.10198 z m 25.05137,-1.05625 c 0.30472,-0.30472 0.31079,-0.5419 0.0109,-0.42683 -0.12621,0.0485 -0.22947,0.17821 -0.22947,0.2884 0,0.11019 -0.0861,0.23506 -0.19121,0.2775 l -0.19122,0.0772 0.18029,0.0121 c 0.0992,0.007 0.28846,-0.0961 0.42068,-0.22831 z m 0.80129,-1.69729 c -0.0561,-0.0561 -0.10198,-0.0102 -0.10198,0.10198 0,0.11218 0.0459,0.15807 0.10198,0.10199 0.0561,-0.0561 0.0561,-0.14788 0,-0.20397 z m -43.44471,-0.91785 c -0.0561,-0.0561 -0.10199,-0.0102 -0.10199,0.10199 0,0.11218 0.0459,0.15807 0.10199,0.10198 0.0561,-0.0561 0.0561,-0.14787 0,-0.20397 z m -3.82185,-1.60942 -0.0803,-0.20077 -0.0121,0.2932 c -0.007,0.16126 0.0295,0.25161 0.0803,0.20078 0.0508,-0.0508 0.0563,-0.18278 0.0121,-0.29321 z m 17.89548,-0.83817 c -0.0561,-0.0561 -0.10198,-0.0102 -0.10198,0.10199 0,0.11218 0.0459,0.15807 0.10198,0.10198 0.0561,-0.0561 0.0561,-0.14788 0,-0.20397 z m -17.59205,-0.30595 c -0.0561,-0.0561 -0.10198,-0.0102 -0.10198,0.10199 0,0.11218 0.0459,0.15807 0.10198,0.10198 0.0561,-0.0561 0.0561,-0.14787 0,-0.20397 z m -53.623487,-5.67279 0.209945,-0.26771 -0.267705,0.20995 c -0.147237,0.11547 -0.267704,0.23594 -0.267704,0.26771 0,0.1259 0.125619,0.0449 0.325464,-0.20995 z m 0.994835,-1.06356 c -0.111934,-0.11193 -0.49444,0.12766 -0.681166,0.42666 l -0.195653,0.31328 0.464763,-0.34361 c 0.25562,-0.18899 0.441046,-0.36734 0.412056,-0.39633 z m 129.041902,0.38027 -0.18102,-0.18102 v 0.15808 c 0,0.20418 0.18091,0.38509 0.283,0.283 0.0435,-0.0435 -0.002,-0.1605 -0.10198,-0.26006 z m -0.31502,-0.61955 -0.19008,-0.18867 0.10445,0.27431 c 0.0575,0.15086 0.14298,0.23577 0.19008,0.18866 0.0471,-0.0471 1e-4,-0.17053 -0.10445,-0.2743 z m -7.5822,-1.11137 c -0.16332,-0.12354 -0.36984,-0.22216 -0.45893,-0.21918 -0.0891,0.003 0.0101,0.1038 0.22046,0.22404 0.49552,0.28327 0.61616,0.2808 0.23847,-0.005 z m -0.69739,-0.2246 c 0,-0.0841 -0.0729,-0.15298 -0.16201,-0.15298 -0.0891,0 -0.11946,0.0688 -0.0675,0.15298 0.052,0.0841 0.12491,0.15297 0.16201,0.15297 0.0371,0 0.0675,-0.0688 0.0675,-0.15297 z M 60.015019,92.1008 c -0.05608,-0.0561 -0.147872,-0.0561 -0.203961,0 -0.05608,0.0561 -0.01018,0.10198 0.101984,0.10198 0.112176,0 0.158072,-0.0459 0.101977,-0.10198 z M 53.33514,91.39079 c 0,-0.084 -0.137674,0.006 -0.305945,0.20009 -0.168276,0.19402 -0.30595,0.38732 -0.30595,0.42955 0,0.0422 0.137674,-0.0478 0.30595,-0.20009 0.168271,-0.15228 0.305945,-0.34558 0.305945,-0.42955 z m 0.407935,-0.36081 c -0.05608,-0.0561 -0.147879,-0.0561 -0.203968,0 -0.05608,0.0561 -0.01018,0.10198 0.101984,0.10198 0.112182,0 0.158072,-0.0459 0.101984,-0.10198 z m 0.746372,-0.2656 0.214599,-0.2146 -0.247422,-0.0949 c -0.136084,-0.0522 -0.283466,-0.0589 -0.327516,-0.0149 -0.04406,0.0441 0.0087,0.0801 0.117114,0.0801 h 0.197202 l -0.190438,0.22946 c -0.240709,0.29004 -0.05065,0.30198 0.236461,0.0149 z m 0.783369,-1.11117 c -0.05608,-0.0561 -0.101983,-0.0102 -0.101983,0.10198 0,0.11218 0.04591,0.15807 0.101983,0.10198 0.05608,-0.0561 0.05608,-0.14787 0,-0.20396 z M 183.0064,89.80618 c -0.0561,-0.0561 -0.14787,-0.0561 -0.20396,0 -0.0561,0.0561 -0.0102,0.10198 0.10198,0.10198 0.11218,0 0.15807,-0.0459 0.10198,-0.10198 z m -108.377229,-0.23456 -0.183569,-0.18357 -0.183569,0.18357 -0.183569,0.18357 h 0.367138 0.367139 z m 0.581305,0.0306 c 0,-0.0841 -0.06884,-0.15298 -0.152978,-0.15298 -0.08414,0 -0.152973,0.0688 -0.152973,0.15298 0,0.0841 0.06884,0.15297 0.152973,0.15297 0.08414,0 0.152978,-0.0688 0.152978,-0.15297 z m 88.337564,-0.11815 c 0.33765,-0.0314 0.64902,-0.0961 0.69195,-0.14356 0.0429,-0.0475 -0.2031,-0.0505 -0.54672,-0.007 -0.34362,0.0438 -0.72743,0.0221 -0.8529,-0.0481 -0.25973,-0.14536 -0.89344,-0.0201 -0.89344,0.17663 0,0.0717 0.0963,0.0934 0.21399,0.0482 0.11769,-0.0452 0.26013,-0.007 0.31652,0.0838 0.0564,0.0912 0.18222,0.11664 0.27961,0.0564 0.0974,-0.0602 0.45335,-0.13519 0.79099,-0.16666 z m -89.79082,-0.0348 c -0.05198,-0.0841 -0.176532,-0.15192 -0.276735,-0.15063 l -0.182188,0.002 0.229459,0.14829 c 0.293884,0.18992 0.346839,0.18992 0.229464,0 z m 43.43345,-0.76327 1.35849,-0.19284 1.2969,0.10523 c 0.71329,0.0579 1.91363,0.26541 2.66741,0.46119 l 1.37052,0.35597 0.16554,-0.4803 c 1.00747,-2.92311 4.02719,-6.71471 7.08622,-8.8976 2.04963,-1.46258 5.36721,-2.87098 7.97596,-3.38599 l 1.34232,-0.265 2.83003,0.003 2.83003,0.003 1.44185,0.33859 c 0.79303,0.18623 2.10095,0.59911 2.90652,0.91752 l 1.46465,0.57892 -0.0364,0.17411 -0.0364,0.1741 0.21769,-0.0835 0.21769,-0.0835 1.119,0.6496 c 2.24872,1.30542 4.26383,3.06479 5.85516,5.11204 0.97061,1.2487 2.19966,3.31179 2.54983,4.28018 0.1071,0.29618 0.27872,0.53852 0.38138,0.53852 0.35501,0 2.88913,-0.62396 3.22989,-0.79528 l 0.34202,-0.17195 -0.0633,-0.39599 c -0.0349,-0.2178 -0.10519,-1.11879 -0.15632,-2.00222 -0.0511,-0.88343 -0.12175,-1.916 -0.15693,-2.29462 -0.0352,-0.37861 -0.10092,-1.10141 -0.1461,-1.60622 -0.99178,-11.08116 -1.68876,-14.25227 -4.23636,-19.27477 -2.78017,-5.48101 -6.53083,-9.57375 -10.46161,-11.41577 l -1.33294,-0.62464 -1.47314,-0.30594 -1.47315,-0.30593 -1.7592,0.0817 -1.75921,0.0817 -1.98867,0.39959 c -1.09376,0.21977 -2.84914,0.59989 -3.90084,0.8447 -4.33025,1.00798 -8.3411,1.5254 -12.69687,1.63796 l -3.44192,0.089 -2.29462,-0.1843 c -3.25727,-0.2614 -5.99943,-0.76113 -10.50293,-1.91385 -2.15878,-0.55257 -4.74023,-1.14528 -5.73654,-1.31714 l -1.81147,-0.31247 -2.600562,10e-4 c -1.430314,7.5e-4 -3.113577,0.0743 -3.740586,0.16353 -8.821846,1.25495 -14.854613,6.43043 -18.697998,16.04093 -1.307123,3.2685 -1.671312,5.01943 -2.502502,12.03139 -0.143826,1.21332 -0.676495,7.37881 -0.7759,8.98085 l -0.101642,1.63808 0.365415,0.15479 c 0.353459,0.14972 2.933119,0.77584 3.196533,0.77584 0.07144,0 0.271232,-0.37773 0.44396,-0.8394 1.297699,-3.4684 5.366935,-7.64895 9.421797,-9.67953 1.617589,-0.81004 3.583676,-1.49355 5.235562,-1.82014 l 1.342333,-0.26538 2.677053,-0.002 2.677052,-0.002 0.994332,0.19474 c 2.142013,0.41952 5.442703,1.59155 5.269833,1.87125 -0.0465,0.0753 0.0135,0.0992 0.13335,0.0533 l 0.21795,-0.0836 1.175,0.69468 c 3.30072,1.95144 6.08884,4.96068 7.83467,8.45599 0.47075,0.94249 0.8873,1.74502 0.92567,1.78338 0.0384,0.0384 0.49645,-0.0523 1.01794,-0.20138 0.52149,-0.14913 1.55949,-0.35793 2.30666,-0.46399 z M 82.077995,76.37912 c -0.519204,-0.29355 -0.848408,-0.81009 -1.065332,-1.67157 l -0.175371,-0.69645 0.326447,-0.67435 0.326447,-0.67434 1.436326,-1.30469 C 87.45995,67.23978 93.484964,64.82101 100.1453,64.44516 l 1.7592,-0.0993 1.45326,0.15629 c 0.79929,0.086 1.77711,0.26697 2.17293,0.40223 l 0.71968,0.24593 0.55723,0.61678 c 0.30647,0.33923 0.66539,0.86732 0.7976,1.17354 l 0.24037,0.55676 0.0113,1.07082 0.0113,1.07082 -0.40621,0.869 -0.40621,0.86899 -0.63784,0.46205 -0.63784,0.46205 -0.71282,0.1069 -0.71281,0.10689 -1.91337,-0.213 -1.91337,-0.21299 -2.218127,0.0324 -2.218129,0.0323 -1.776887,0.30458 c -2.886095,0.49471 -7.104117,2.07434 -9.267621,3.47067 l -0.887492,0.57279 -0.841354,0.0515 -0.84136,0.0514 z m 3.248302,-0.95208 0.209945,-0.2545 -0.344191,0.1834 c -0.355962,0.18967 -0.443613,0.32561 -0.209951,0.32561 0.07384,0 0.228725,-0.11453 0.344197,-0.25451 z m -3.076094,-2.88497 0.19334,-0.23296 -0.2511,0.0964 c -0.138101,0.053 -0.251099,0.15783 -0.251099,0.23297 0,0.19672 0.08855,0.16909 0.308859,-0.0964 z m 17.742119,-7.62885 c 0,-0.0331 -0.106834,-0.10111 -0.237408,-0.15122 l -0.237409,-0.0911 0.09346,0.15122 c 0.08984,0.14536 0.381355,0.215 0.381355,0.0911 z m 52.469848,10.92025 c -1.40122,-0.82562 -3.78095,-1.87553 -5.72349,-2.52516 -1.82685,-0.61094 -3.60678,-0.95327 -5.97869,-1.14986 l -2.14165,-0.17751 -1.7592,0.17778 c -0.96756,0.0978 -2.34888,0.21645 -3.06958,0.26369 l -1.31036,0.0859 -0.69489,-0.30738 -0.6949,-0.30738 -0.40108,-0.52585 c -0.86025,-1.12785 -1.10857,-2.87443 -0.61474,-4.32376 l 0.25127,-0.73745 0.5812,-0.58119 0.58119,-0.58119 1.04147,-0.32404 1.04147,-0.32404 1.7592,-0.0525 c 5.90887,-0.17622 11.81025,1.5092 16.75557,4.78535 1.59042,1.05361 3.01877,2.28577 2.89044,2.49342 -0.0484,0.0783 0.003,0.12352 0.11456,0.1004 0.11143,-0.0231 0.18538,0.044 0.16435,0.14918 -0.0211,0.10517 0.0478,0.17401 0.15297,0.15298 0.10517,-0.021 0.1723,0.0529 0.14918,0.16434 -0.0231,0.11143 0.0185,0.16518 0.0925,0.11945 0.15096,-0.0933 0.66291,0.42153 0.92476,0.92995 0.25374,0.49265 0.20419,1.26306 -0.12833,1.99556 l -0.29369,0.64698 -0.50606,0.30854 -0.50606,0.30854 -0.68874,5.6e-4 -0.68873,5.8e-4 z m 29.67431,13.38261 c -0.10643,-0.12824 -0.23333,-0.19333 -0.282,-0.14466 -0.0487,0.0487 0.0128,0.15255 0.13652,0.23082 0.32384,0.20481 0.36616,0.17974 0.14548,-0.0862 z M 56.840804,88.74014 c 0.209934,-0.18368 -0.287981,-0.0131 -0.531669,0.18213 l -0.296942,0.2379 0.382436,-0.18213 c 0.210339,-0.10018 0.41112,-0.20724 0.446175,-0.2379 z m 124.827076,0.19315 c -0.23534,-0.21057 -1.05808,-0.53604 -1.05808,-0.41857 0,0.0793 0.18931,0.21329 0.42068,0.2978 0.43891,0.1603 0.74677,0.21863 0.6374,0.12077 z M 57.393009,88.40796 c -0.04712,-0.0471 -0.170531,-9e-5 -0.274302,0.10445 l -0.188668,0.19008 0.274301,-0.10444 c 0.150868,-0.0575 0.235767,-0.14298 0.188669,-0.19009 z M 180.40584,88.27644 c -0.0561,-0.0561 -0.14788,-0.0561 -0.20397,0 -0.0561,0.0561 -0.0102,0.10198 0.10199,0.10198 0.11218,0 0.15807,-0.0459 0.10198,-0.10198 z m -14.22662,-1.2238 c -0.0561,-0.0561 -0.10198,-0.0102 -0.10198,0.10199 0,0.11218 0.0459,0.15807 0.10198,0.10198 0.0561,-0.0561 0.0561,-0.14788 0,-0.20397 z M 86.479586,82.76936 c -0.05608,-0.0561 -0.147873,-0.0561 -0.203967,0 -0.05608,0.0561 -0.01018,0.10199 0.101983,0.10199 0.112183,0 0.158072,-0.0459 0.101984,-0.10199 z m 49.308734,-0.35694 c 0.1262,-0.0816 0.16062,-0.14829 0.0765,-0.14829 -0.0841,0 -0.25623,0.0667 -0.38243,0.14829 -0.12621,0.0816 -0.16063,0.14829 -0.0765,0.14829 0.0841,0 0.25623,-0.0667 0.38243,-0.14829 z m -5.02864,-1.64447 0.20995,-0.26771 -0.26771,0.20995 c -0.14723,0.11547 -0.2677,0.23594 -0.2677,0.2677 0,0.12591 0.12562,0.0449 0.32546,-0.20994 z m 1.35725,-0.99119 v -0.15534 l -0.22946,0.19044 c -0.1262,0.10474 -0.22946,0.21426 -0.22946,0.24339 0,0.0291 0.10326,0.0134 0.22946,-0.0351 0.12621,-0.0485 0.22946,-0.15795 0.22946,-0.24339 z m 0.25496,-0.21986 c -0.0561,-0.0561 -0.10198,-0.0102 -0.10198,0.10198 0,0.11218 0.0459,0.15808 0.10198,0.10199 0.0561,-0.0561 0.0561,-0.14788 0,-0.20397 z M 84.949844,79.09798 c -0.05608,-0.0561 -0.147879,-0.0561 -0.203967,0 -0.05608,0.0561 -0.01018,0.10198 0.101984,0.10198 0.112182,0 0.158071,-0.0459 0.101983,-0.10198 z m 48.951796,-0.45893 c -0.0561,-0.0561 -0.10199,-0.0102 -0.10199,0.10199 0,0.11217 0.0459,0.15807 0.10199,0.10198 0.0561,-0.0561 0.0561,-0.14788 0,-0.20397 z m 39.77333,-0.76487 c -0.0561,-0.0561 -0.10199,-0.0102 -0.10199,0.10198 0,0.11219 0.0459,0.15808 0.10199,0.10199 0.0561,-0.0561 0.0561,-0.14788 0,-0.20397 z m -72.2039,-0.15297 c -0.0561,-0.0561 -0.14787,-0.0561 -0.20396,0 -0.0561,0.0561 -0.0102,0.10198 0.10198,0.10198 0.11218,0 0.15807,-0.0459 0.10198,-0.10198 z m 72.2039,-0.30595 c -0.0561,-0.0561 -0.14788,-0.0561 -0.20397,0 -0.0561,0.0561 -0.0102,0.10198 0.10198,0.10198 0.11218,0 0.15808,-0.0459 0.10199,-0.10198 z m 0.45892,-0.15297 c -0.0561,-0.0561 -0.10198,-0.0102 -0.10198,0.10198 0,0.11218 0.0459,0.15807 0.10198,0.10198 0.0561,-0.0561 0.0561,-0.14788 0,-0.20396 z m -0.45892,-0.30596 c -0.0561,-0.0561 -0.10199,-0.0102 -0.10199,0.10199 0,0.11218 0.0459,0.15807 0.10199,0.10198 0.0561,-0.0561 0.0561,-0.14787 0,-0.20397 z m 0,-0.45892 c -0.0561,-0.0561 -0.14788,-0.0561 -0.20397,0 -0.0561,0.0561 -0.0102,0.10199 0.10198,0.10199 0.11218,0 0.15808,-0.0459 0.10199,-0.10199 z m -9.94333,-8.26061 c -0.0561,-0.0561 -0.10199,-0.0102 -0.10199,0.10198 0,0.11218 0.0459,0.15807 0.10199,0.10198 0.0561,-0.0561 0.0561,-0.14787 0,-0.20396 z m -79.267298,-15.65263 0.09346,-0.15122 -0.237403,0.0911 c -0.265016,0.1017 -0.313507,0.21135 -0.09346,0.21135 0.07917,0 0.186003,-0.068 0.237408,-0.15123 z m 53.873548,-2.0924 c -0.0561,-0.0561 -0.14788,-0.0561 -0.20396,0 -0.0561,0.0561 -0.0102,0.10198 0.10198,0.10198 0.11218,0 0.15807,-0.0459 0.10198,-0.10198 z M 65.617414,46.7694 c 0.044,-0.16828 0.05446,-0.30595 0.02324,-0.30595 -0.03122,0 -0.130465,0.13767 -0.22052,0.30595 l -0.163744,0.30594 h 0.140519 c 0.07728,0 0.176515,-0.13767 0.22052,-0.30594 z m 5.462754,-7.41926 0.190438,-0.22946 h -0.152978 c -0.08414,0 -0.238669,0.10326 -0.343411,0.22946 l -0.190432,0.22946 h 0.152973 c 0.08413,0 0.238669,-0.10326 0.34341,-0.22946 z m 0.458923,0.0765 c 0,-0.0841 -0.03035,-0.15298 -0.06746,-0.15298 -0.03712,0 -0.110003,0.0688 -0.162003,0.15298 -0.05198,0.0841 -0.02162,0.15297 0.06746,0.15297 0.0891,0 0.162003,-0.0688 0.162003,-0.15297 z m 0.254956,-1.01983 c -0.05608,-0.0561 -0.101983,-0.0102 -0.101983,0.10198 0,0.11218 0.04591,0.15807 0.101983,0.10198 0.05608,-0.0561 0.05608,-0.14787 0,-0.20396 z M 150.11692,24.94506 c -0.0561,-0.0561 -0.14788,-0.0561 -0.20397,0 -0.0561,0.0561 -0.0102,0.10198 0.10198,0.10198 0.11218,0 0.15807,-0.0459 0.10199,-0.10198 z M 81.890355,22.19152 c -0.05608,-0.0561 -0.147873,-0.0561 -0.203967,0 -0.05608,0.0561 -0.01018,0.10198 0.101983,0.10198 0.112183,0 0.158072,-0.0459 0.101984,-0.10198 z m 4.28328,-1.98867 c -0.05608,-0.0561 -0.147873,-0.0561 -0.203961,0 -0.05608,0.0561 -0.01018,0.10198 0.101978,0.10198 0.112182,0 0.158077,-0.0459 0.101983,-0.10198 z m 55.427705,-2.5587 c 0,-0.0331 -0.10683,-0.10112 -0.2374,-0.15122 l -0.23741,-0.0911 0.0935,0.15123 c 0.0898,0.14535 0.38135,0.21499 0.38135,0.0911 z m -39.51837,-3.86622 c -0.0561,-0.0561 -0.14788,-0.0561 -0.20397,0 -0.0561,0.0561 -0.0102,0.10198 0.10199,0.10198 0.11218,0 0.15807,-0.0459 0.10198,-0.10198 z m -0.30595,-0.30595 c -0.0561,-0.0561 -0.14787,-0.0561 -0.20397,0 -0.0561,0.0561 -0.0102,0.10198 0.10199,0.10198 0.11218,0 0.15807,-0.0459 0.10198,-0.10198 z"
         id="path1" /><path
         style="fill:#f9caab;fill-opacity:1;stroke:none;stroke-width:2.04094"
         d="m 219.52693,427.22011 c -12.9268,-15.53257 -17.11892,-42.69767 -9.13444,-59.19141 5.5539,-11.47282 14.11427,-17.38953 26.94281,-18.62219 l 10.2689,-0.98672 -1.26948,16.10822 c -1.79604,22.78954 -15.03168,70.51375 -19.42624,70.0459 -0.76124,-0.081 -4.08294,-3.39025 -7.38155,-7.3538 z"
         id="path3"
         transform="scale(0.26458333)" /><path
         style="fill:#f9caab;fill-opacity:1;stroke:none;stroke-width:2.04094"
         d="m 340.23097,419.53189 c -33.09171,-11.8041 -49.37419,-47.70652 -35.32228,-77.88467 20.63404,-44.31407 82.55752,-45.71629 104.16351,-2.35872 7.31812,14.68555 7.4179,36.16431 0.23385,50.34133 -12.84922,25.35672 -44.00622,38.84434 -69.07508,29.90206 z m 41.60542,-32.86576 c 7.66568,-3.96408 12.06597,-12.78096 12.06597,-24.17661 0,-9.37035 -3.11781,-14.2932 -5.35689,-8.45824 -1.68134,4.38151 -7.89227,7.48596 -11.89999,5.94806 -8.56324,-3.28603 -7.75449,-17.1006 1.00113,-17.1006 6.44732,0 4.6201,-3.56401 -3.14029,-6.12517 -23.22493,-7.66491 -44.42484,19.35856 -31.63861,40.32965 6.08091,9.97349 15.67411,15.21908 25.22685,13.79412 4.32728,-0.64549 10.51111,-2.54054 13.74183,-4.21121 z"
         id="path4"
         transform="scale(0.26458333)" /><path
         style="fill:#f9caab;fill-opacity:1;stroke:none;stroke-width:2.04094"
         d="m 291.487,490.33701 c -7.59821,-8.17955 -15.11356,-22.24976 -19.3499,-36.22677 -2.87104,-9.47245 -3.69808,-18.94763 -3.65195,-41.83937 0.0801,-39.76653 2.18779,-57.59316 6.70704,-56.72852 2.63747,0.50462 3.68914,3.91652 4.70463,15.26307 3.34503,37.37562 30.24263,65.24082 67.53998,69.96966 11.47547,1.45495 18.01514,1.22038 27.21383,-0.97615 16.41521,-3.91972 16.62324,-3.88334 17.64614,3.08611 0.73354,4.99794 0.17522,6.12283 -3.03896,6.12283 -2.16568,0 -12.01554,2.70636 -21.88858,6.01413 -19.61699,6.5723 -41.0038,18.50228 -57.6545,32.16079 -5.87804,4.82175 -11.21086,8.76682 -11.8507,8.76682 -0.63983,0 -3.5095,-2.52567 -6.37703,-5.6126 z"
         id="path5"
         transform="scale(0.26458333)" /><path
         style="fill:#f9caab;fill-opacity:1;stroke:none;stroke-width:2.04094"
         d="m 386.27273,584.7594 c -12.15416,-5.28332 -24.72861,-30.91099 -22.08388,-45.00861 1.3113,-6.98985 6.04025,-9.10512 20.35558,-9.10512 16.44765,0 44.65003,-11.05212 57.90916,-22.69379 l 7.05527,-6.1946 6.38258,5.9599 c 13.47794,12.58537 28.97953,18.69852 58.42667,23.04091 9.47059,1.39656 16.27984,3.51061 17.85827,5.54438 6.53755,8.42351 -1.1935,33.44536 -13.54481,43.83831 -7.24927,6.09985 -17.81262,8.80374 -26.18475,6.70247 -3.06381,-0.76897 -8.89853,-5.00296 -12.96605,-9.40888 l -7.39548,-8.01075 h -23.6454 -23.6454 l -4.52427,6.35375 c -7.79338,10.9448 -21.2833,14.50879 -33.99749,8.98203 z m 94.82952,-28.70373 c 13.29413,-4.4217 17.84667,-9.06804 16.0192,-16.34925 -1.21756,-4.85116 -2.10939,-5.29793 -8.91591,-4.46653 -4.15966,0.5081 -13.51868,2.54585 -20.79781,4.52833 -15.55388,4.23611 -30.91952,3.28792 -47.24544,-2.91544 -9.73329,-3.69836 -11.2137,-3.79606 -15.45089,-1.01975 -5.58353,3.65847 -6.04209,9.29535 -1.11455,13.70075 3.12449,2.79341 15.31691,7.35637 28.06299,10.50246 8.05367,1.98787 38.98505,-0.50239 49.44241,-3.98057 z"
         id="path6"
         transform="scale(0.26458333)" /><path
         style="fill:#f9caab;fill-opacity:1;stroke:none;stroke-width:2.04094"
         d="m 583.82952,483.7195 c -18.26657,-14.62646 -38.11814,-24.74888 -60.90215,-31.05433 -15.78524,-4.36856 -16.86454,-5.01505 -16.32756,-9.78013 0.64417,-5.71623 2.15137,-5.89267 19.59088,-2.29338 13.55614,2.79782 35.32725,0.0298 48.5124,-6.16796 24.42902,-11.48299 41.31819,-36.25897 43.26504,-63.46868 0.74902,-10.46864 1.88319,-14.4194 4.54901,-15.8461 4.57231,-2.44703 5.59353,3.52109 7.37694,43.11157 1.54786,34.36153 -0.88379,52.75573 -9.33707,70.63018 -5.3106,11.22927 -17.20032,27.14334 -20.2204,27.06449 -0.72561,-0.0189 -8.1538,-5.50699 -16.50709,-12.19566 z"
         id="path7"
         transform="scale(0.26458333)" /><path
         style="fill:#f9caab;fill-opacity:1;stroke:none;stroke-width:2.04094"
         d="m 665.35872,423.05613 c -6.15598,-16.45334 -11.93419,-41.76358 -13.51369,-59.19389 l -1.34663,-14.86067 h 9.15954 c 25.51397,0 40.94645,33.77416 28.39635,62.14575 -4.08107,9.22593 -14.39558,23.57377 -16.94702,23.57388 -0.76124,3e-5 -3.34809,-5.24925 -5.74855,-11.66507 z"
         id="path8"
         transform="scale(0.26458333)" /><path
         style="fill:#f9caab;fill-opacity:1;stroke:none;stroke-width:2.04094"
         d="m 524.28258,419.78311 c -27.06533,-10.13075 -40.56068,-28.60952 -40.51388,-55.47445 0.038,-21.81152 9.31824,-38.44239 27.34713,-49.00802 30.8942,-18.10521 71.12762,-3.51036 84.46351,30.63952 6.40093,16.39118 1.4566,41.19691 -11.14616,55.92041 -14.12298,16.49952 -41.86708,24.76619 -60.1506,17.92254 z m 22.27785,-33.2381 c 6.22454,-4.07375 12.64814,-14.87013 12.62297,-21.21588 -0.0479,-12.06558 -4.47136,-18.51144 -7.07467,-10.30912 -1.82666,5.75529 -8.71957,7.3104 -13.44554,3.03345 -5.72434,-5.18045 -4.83304,-10.60708 2.4718,-15.04942 l 6.40743,-3.89659 -8.58122,-2.31068 c -31.15963,-8.39042 -48.73453,34.22278 -20.91925,50.72211 8.36854,4.96402 20.0554,4.56492 28.51848,-0.97387 z"
         id="path9"
         transform="scale(0.26458333)" /><path
         style="fill:#f9caab;fill-opacity:1;stroke:none;stroke-width:2.04094"
         d="m 425.01146,325.75226 c -13.97939,-23.37199 -35.37016,-36.13222 -63.01502,-37.59033 -19.46133,-1.02647 -32.79504,2.55196 -48.83136,13.10511 -10.65025,7.0087 -21.45806,18.89678 -25.75661,28.33107 -1.8389,4.03596 -3.51068,5.10572 -6.65795,4.26039 -2.31137,-0.62081 -4.98881,-1.14129 -5.94987,-1.15662 -2.04238,-0.0326 0.0271,-30.22319 3.77928,-55.13338 6.1201,-40.6307 26.05311,-70.92527 55.18125,-83.86549 17.51663,-7.78179 41.4159,-7.71244 77.34646,0.22444 28.69831,6.33931 31.31904,6.57392 60.9861,5.45964 20.48994,-0.76959 36.88044,-2.57295 48.3472,-5.31937 23.05844,-5.52276 35.25194,-5.38675 47.96841,0.53504 18.30405,8.5238 41.24483,39.28877 47.87808,64.20744 2.874,10.7965 8.2417,53.17787 8.2417,65.07335 0,7.76141 -0.60107,8.86356 -5.50514,10.0944 -3.27163,0.82113 -5.79757,0.50446 -6.2259,-0.78052 -0.39639,-1.18922 -4.13853,-7.05435 -8.31583,-13.03363 -21.48537,-30.75356 -63.78373,-41.28828 -98.67107,-24.57476 -14.5271,6.95952 -29.03357,20.95162 -35.2048,33.95654 -2.95812,6.23378 -4.15209,7.05667 -8.614,5.9368 -7.03871,-1.76661 -19.01981,-1.873 -25.30561,-0.22471 -4.61047,1.20898 -5.8897,0.16749 -11.67532,-9.50541 z M 328.6913,284.66155 c 16.49672,-8.35951 33.41382,-11.81674 52.12839,-10.6531 22.22484,1.38191 27.28079,-1.42377 27.33803,-15.17055 0.024,-5.76891 -1.26732,-8.53594 -5.58134,-11.95947 -5.11851,-4.06196 -7.31944,-4.36688 -25.00158,-3.4638 -22.53733,1.15106 -36.59171,5.78745 -55.18907,18.20629 -15.55573,10.38772 -19.73884,16.23558 -16.57726,23.1745 2.99171,6.56608 9.73902,6.52661 22.88283,-0.13387 z m 263.11092,1.20491 c 3.28153,-6.1316 2.66814,-7.89629 -5.67293,-16.32115 -15.46855,-15.62391 -44.85646,-26.67287 -70.94427,-26.67287 -11.68312,0 -15.67831,0.84581 -19.98064,4.23002 -6.78096,5.3339 -7.45058,17.26656 -1.33719,23.82852 3.70827,3.98035 5.512,4.24236 21.94016,3.18707 20.1926,-1.29709 36.80221,1.97309 53.09369,10.45334 11.92708,6.20843 20.02648,6.66645 22.90118,1.29507 z"
         id="path10"
         transform="scale(0.26458333)" /><path
         style="fill:#f9caab;fill-opacity:1;stroke:none;stroke-width:2.04094"
         d="m 431.23911,454.91512 c -5.84401,-2.24664 -12.9618,-6.86138 -15.81733,-10.25497 -7.69585,-9.14601 -6.86139,-17.14764 3.26269,-31.28575 11.18453,-15.61902 16.03679,-28.94295 16.03679,-44.03578 0,-11.50727 0.35073,-12.40891 5.6126,-14.42852 3.47358,-1.33323 8.7239,-1.50769 13.77638,-0.45775 l 8.16378,1.69648 1.18183,15.30511 c 1.37554,17.81368 5.04593,27.34591 16.23686,42.1682 10.68089,14.14673 11.10023,23.55266 1.46005,32.74867 -7.30953,6.97274 -22.54217,12.9005 -32.72645,12.73544 -3.60896,-0.0585 -11.3432,-1.9445 -17.1872,-4.19113 z"
         id="path11"
         transform="scale(0.26458333)" /></g></g></svg>
